<?xml version="1.0" encoding="UTF-8" standalone="no"?>
<svg
   xmlns:dc="http://purl.org/dc/elements/1.1/"
   xmlns:cc="http://creativecommons.org/ns#"
   xmlns:rdf="http://www.w3.org/1999/02/22-rdf-syntax-ns#"
   xmlns:svg="http://www.w3.org/2000/svg"
   xmlns="http://www.w3.org/2000/svg"
   version="1.1"
   id="svg8318"
   viewBox="0 0 260.45381 117.305"
   height="33.106079mm"
   width="73.505852mm">
  <defs
     id="defs8320">
    <clipPath
       clipPathUnits="userSpaceOnUse"
       id="clipPath8478">
      <path
         d="m 101.559,111.173 c -11.133,0 -20.188,-9.762 -20.188,-21.813 0,-0.718 0.531,-4.867 0.531,-4.867 0,0 -4.214,4.309 -10.511,4.785 C 48.191,91.028 40.23,77.892 37.457,62.743 L 31.57,62.7 c -8.5,0 -15.394,-7.687 -15.394,-17.172 l 0,-16.515 185.094,0 0,7.187 c 4.32,5.699 6.996,12.922 6.996,20.871 0,18.238 -13.649,32.988 -30.496,32.988 -0.141,0 -0.27,-0.039 -0.407,-0.042 -1.058,10.972 -9.511,19.554 -19.925,19.554 -11.133,0 -20.188,-9.762 -20.188,-21.812 0,-0.27 0.066,-0.516 0.074,-0.782 -4.543,2.911 -9.769,4.723 -15.433,4.723 -0.137,0 -0.266,-0.039 -0.407,-0.039 -1.074,10.953 -9.523,19.512 -19.925,19.512 z"
         id="path8480" />
    </clipPath>
    <radialGradient
       fx="76.831902"
       fy="130.733"
       cx="76.831902"
       cy="130.733"
       r="47.837898"
       gradientUnits="userSpaceOnUse"
       gradientTransform="matrix(1,0,0,-1,7.01006,170.199)"
       spreadMethod="pad"
       id="radialGradient8484">
      <stop
         style="stop-opacity:1;stop-color:#c3ff00"
         offset="0"
         id="stop8486" />
      <stop
         style="stop-opacity:1;stop-color:#bfe518"
         offset="1"
         id="stop8488" />
    </radialGradient>
    <clipPath
       clipPathUnits="userSpaceOnUse"
       id="clipPath8508">
      <path
         d="M 16.949,29.017 C 19.012,22.243 24.711,17.329 31.48,17.329 l 154.313,0 c 6.769,0 12.437,4.918 14.5,11.688 l -183.344,0 z"
         id="path8510" />
    </clipPath>
    <radialGradient
       fx="76.016296"
       fy="140.54201"
       cx="76.016296"
       cy="140.54201"
       r="66.429703"
       gradientUnits="userSpaceOnUse"
       gradientTransform="matrix(1,0,0,-1,7.01006,170.199)"
       spreadMethod="pad"
       id="radialGradient8514">
      <stop
         style="stop-opacity:1;stop-color:#ff8300"
         offset="0"
         id="stop8516" />
      <stop
         style="stop-opacity:1;stop-color:#e97e18"
         offset="0.507519"
         id="stop8518" />
      <stop
         style="stop-opacity:1;stop-color:#d87516"
         offset="1"
         id="stop8520" />
    </radialGradient>
    <clipPath
       clipPathUnits="userSpaceOnUse"
       id="clipPath8528">
      <path
         d="m 158,101.306 3.562,0 0,-13.32 -3.562,0 0,13.32 z"
         id="path8530" />
    </clipPath>
    <linearGradient
       x1="152.689"
       y1="70.563202"
       x2="152.73599"
       y2="78.348"
       gradientUnits="userSpaceOnUse"
       gradientTransform="matrix(1,0,0,-1,7.01006,170.199)"
       spreadMethod="pad"
       id="linearGradient8534">
      <stop
         style="stop-opacity:1;stop-color:#b16012"
         offset="0"
         id="stop8536" />
      <stop
         style="stop-opacity:1;stop-color:#d97516"
         offset="1"
         id="stop8538" />
    </linearGradient>
    <clipPath
       clipPathUnits="userSpaceOnUse"
       id="clipPath8548">
      <path
         d="m 167.41,101.427 56.133,0 0,-22.364 -72.27,0 16.137,22.364 z"
         id="path8550" />
    </clipPath>
    <radialGradient
       fx="190.08701"
       fy="69.569603"
       cx="190.08701"
       cy="69.569603"
       r="29.591801"
       gradientUnits="userSpaceOnUse"
       gradientTransform="matrix(1,0,0,-1,7.01006,170.199)"
       spreadMethod="pad"
       id="radialGradient8554">
      <stop
         style="stop-opacity:1;stop-color:#ff8a1a"
         offset="0"
         id="stop8556" />
      <stop
         style="stop-opacity:1;stop-color:#e57c18"
         offset="1"
         id="stop8558" />
    </radialGradient>
    <clipPath
       clipPathUnits="userSpaceOnUse"
       id="clipPath8566">
      <path
         d="m 220.934,101.403 2.609,0 0,-9.758 -2.609,0 0,9.758 z"
         id="path8568" />
    </clipPath>
    <linearGradient
       x1="215.10201"
       y1="69.008598"
       x2="215.179"
       y2="78.728897"
       gradientUnits="userSpaceOnUse"
       gradientTransform="matrix(1,0,0,-1,7.01006,170.199)"
       spreadMethod="pad"
       id="linearGradient8572">
      <stop
         style="stop-opacity:1;stop-color:#b16012"
         offset="0"
         id="stop8574" />
      <stop
         style="stop-opacity:1;stop-color:#d97516"
         offset="1"
         id="stop8576" />
    </linearGradient>
    <clipPath
       clipPathUnits="userSpaceOnUse"
       id="clipPath8584">
      <path
         d="m 151.164,75.376 72.551,0 0,-51.902 -72.551,0 0,51.902 z"
         id="path8586" />
    </clipPath>
    <linearGradient
       x1="184.528"
       y1="143.52299"
       x2="184.528"
       y2="94.738899"
       gradientUnits="userSpaceOnUse"
       gradientTransform="matrix(1,0,0,-1,7.01006,170.199)"
       spreadMethod="pad"
       id="linearGradient8590">
      <stop
         style="stop-opacity:1;stop-color:#b16012"
         offset="0"
         id="stop8592" />
      <stop
         style="stop-opacity:1;stop-color:#d97516"
         offset="1"
         id="stop8594" />
    </linearGradient>
    <clipPath
       clipPathUnits="userSpaceOnUse"
       id="clipPath8604">
      <path
         d="m 16.137,48.044 0,-13.813 5.031,0 0,1.188 0.625,0 0,-0.625 0.719,0 0,0.625 0.968,0 0,-0.625 0.688,0 0,0.625 0.969,0 0,-0.625 0.687,0 0,0.625 0.969,0 0,-0.625 0.687,0 0,0.625 0.969,0 0,-0.625 0.688,0 0,0.625 0.968,0 0,-0.625 0.719,0 0,0.625 0.938,0 0,-0.625 0.718,0 0,0.625 0.969,0 0,-0.625 0.688,0 0,0.625 0.968,0 0,-0.625 0.688,0 0,0.625 0.969,0 0,-0.625 0.687,0 0,0.625 0.969,0 0,-0.625 0.687,0 0,0.625 0.969,0 0,-0.625 0.719,0 0,0.625 0.937,0 0,-0.625 0.719,0 0,0.625 0.938,0 0,-0.625 0.718,0 0,0.625 0.719,0 0,-1.281 5,0 0,1.25 0.531,0 0,-0.625 0.719,0 0,0.625 0.969,0 0,-0.625 0.687,0 0,0.625 0.969,0 0,-0.625 0.688,0 0,0.625 0.968,0 0,-0.625 0.688,0 0,0.625 0.969,0 0,-0.625 0.687,0 0,0.625 0.969,0 0,-0.625 0.719,0 0,0.625 0.937,0 0,-0.625 0.719,0 0,0.625 0.969,0 0,-0.625 0.687,0 0,0.625 0.969,0 0,-0.625 0.687,0 0,0.625 0.969,0 0,-0.625 0.688,0 0,0.625 0.968,0 0,-0.625 0.688,0 0,0.625 0.969,0 0,-0.625 0.718,0 0,0.625 0.938,0 0,-0.625 0.719,0 0,0.625 0.937,0 0,-0.625 0.719,0 0,0.625 0.719,0 0,-1.282 1.968,0 0,-5.093 4.407,0 0,14.187 c 0,0 2,0.813 4.062,0.813 2.059,0 4.156,-0.813 4.156,-0.813 l 0,-14.187 4.438,0 0,5.125 1.844,0 0,1.281 0.625,0 0,-0.625 0.718,0 0,0.625 0.969,0 0,-0.625 0.688,0 0,0.625 0.968,0 0,-0.625 0.688,0 0,0.625 0.969,0 0,-0.625 0.687,0 0,0.625 0.969,0 0,-0.625 0.687,0 0,0.625 0.969,0 0,-0.625 0.719,0 0,0.625 0.937,0 0,-0.625 0.719,0 0,0.625 0.969,0 0,-0.625 0.687,0 0,0.625 0.969,0 0,-0.625 0.688,0 0,0.625 0.968,0 0,-0.625 0.688,0 0,0.625 0.969,0 0,-0.625 0.687,0 0,0.625 0.969,0 0,-0.625 0.719,0 0,0.625 0.933,0 0,-0.625 0.723,0 0,0.625 0.937,0 0,-0.625 0.719,0 0,0.625 0.719,0 0,-1.281 5,0 0,1.25 0.562,0 0,-0.625 0.719,0 0,0.625 0.969,0 0,-0.625 0.687,0 0,0.625 0.965,0 0,-0.625 0.692,0 0,0.625 0.968,0 0,-0.625 0.688,0 0,0.625 0.969,0 0,-0.625 0.683,0 0,0.625 0.973,0 0,-0.625 0.719,0 0,0.625 0.937,0 0,-0.625 0.719,0 0,0.625 0.969,0 0,-0.625 0.683,0 0,0.625 0.973,0 0,-0.625 0.687,0 0,0.625 0.969,0 0,-0.625 0.688,0 0,0.625 0.968,0 0,-0.625 0.688,0 0,0.625 0.969,0 0,-0.625 0.718,0 0,0.625 0.938,0 0,-0.625 0.719,0 0,0.625 0.933,0 0,-0.625 0.723,0 0,0.625 0.777,0 0,0.687 -0.777,0 0,9.344 0.777,0 0,0.687 -0.777,0 0,1.157 -0.723,0 0,-1.157 -0.933,0 0,1.157 -0.719,0 0,-1.157 -0.938,0 0,1.157 -0.718,0 0,-1.157 -0.969,0 0,1.157 -0.688,0 0,-1.157 -0.968,0 0,1.157 -0.688,0 0,-1.157 -0.969,0 0,1.157 -0.687,0 0,-1.157 -0.973,0 0,1.157 -0.683,0 0,-1.157 -0.969,0 0,1.157 -0.719,0 0,-1.157 -0.937,0 0,1.157 -0.719,0 0,-1.157 -0.973,0 0,1.157 -0.683,0 0,-1.157 -0.969,0 0,1.157 -0.688,0 0,-1.157 -0.968,0 0,1.157 -0.692,0 0,-1.157 -0.965,0 0,1.157 -0.687,0 0,-1.157 -0.969,0 0,1.157 -0.719,0 0,-1.157 -0.562,0 0,1.844 -5,0 0,-1.812 -0.719,0 0,1.156 -0.719,0 0,-1.156 -0.937,0 0,1.156 -0.723,0 0,-1.156 -0.933,0 0,1.156 -0.719,0 0,-1.156 -0.969,0 0,1.156 -0.687,0 0,-1.156 -0.969,0 0,1.156 -0.688,0 0,-1.156 -0.968,0 0,1.156 -0.688,0 0,-1.156 -0.969,0 0,1.156 -0.687,0 0,-1.156 -0.969,0 0,1.156 -0.719,0 0,-1.156 -0.937,0 0,1.156 -0.719,0 0,-1.156 -0.969,0 0,1.156 -0.687,0 0,-1.156 -0.969,0 0,1.156 -0.687,0 0,-1.156 -0.969,0 0,1.156 -0.688,0 0,-1.156 -0.968,0 0,1.156 -0.688,0 0,-1.156 -0.969,0 0,1.156 -0.718,0 0,-1.156 -0.625,0 0,1.843 -20.875,0 0,-1.875 -0.719,0 0,1.157 -0.719,0 0,-1.157 -0.937,0 0,1.157 -0.719,0 0,-1.157 -0.938,0 0,1.157 -0.718,0 0,-1.157 -0.969,0 0,1.157 -0.688,0 0,-1.157 -0.968,0 0,1.157 -0.688,0 0,-1.157 -0.969,0 0,1.157 -0.687,0 0,-1.157 -0.969,0 0,1.157 -0.687,0 0,-1.157 -0.969,0 0,1.157 -0.719,0 0,-1.157 -0.937,0 0,1.157 -0.719,0 0,-1.157 -0.969,0 0,1.157 -0.687,0 0,-1.157 -0.969,0 0,1.157 -0.688,0 0,-1.157 -0.968,0 0,1.157 -0.688,0 0,-1.157 -0.969,0 0,1.157 -0.687,0 0,-1.157 -0.969,0 0,1.157 -0.719,0 0,-1.157 -0.531,0 0,1.875 -5,0 0,-1.843 -0.719,0 0,1.156 -0.718,0 0,-1.156 -0.938,0 0,1.156 -0.719,0 0,-1.156 -0.937,0 0,1.156 -0.719,0 0,-1.156 -0.969,0 0,1.156 -0.687,0 0,-1.156 -0.969,0 0,1.156 -0.687,0 0,-1.156 -0.969,0 0,1.156 -0.688,0 0,-1.156 -0.968,0 0,1.156 -0.688,0 0,-1.156 -0.969,0 0,1.156 -0.718,0 0,-1.156 -0.938,0 0,1.156 -0.719,0 0,-1.156 -0.968,0 0,1.156 -0.688,0 0,-1.156 -0.969,0 0,1.156 -0.687,0 0,-1.156 -0.969,0 0,1.156 -0.687,0 0,-1.156 -0.969,0 0,1.156 -0.688,0 0,-1.156 -0.968,0 0,1.156 -0.719,0 0,-1.156 -0.625,0 0,1.906 -5.031,0 z m 5.031,-2.594 0.625,0 0,-9.344 -0.625,0 0,9.344 z m 1.344,0 0.968,0 0,-9.344 -0.968,0 0,9.344 z m 1.656,0 0.969,0 0,-9.344 -0.969,0 0,9.344 z m 1.656,0 0.969,0 0,-9.344 -0.969,0 0,9.344 z m 1.656,0 0.969,0 0,-9.344 -0.969,0 0,9.344 z m 1.657,0 0.968,0 0,-9.344 -0.968,0 0,9.344 z m 1.687,0 0.938,0 0,-9.344 -0.938,0 0,9.344 z m 1.656,0 0.969,0 0,-9.344 -0.969,0 0,9.344 z m 1.657,0 0.968,0 0,-9.344 -0.968,0 0,9.344 z m 1.656,0 0.969,0 0,-9.344 -0.969,0 0,9.344 z m 1.656,0 0.969,0 0,-9.344 -0.969,0 0,9.344 z m 1.656,0 0.969,0 0,-9.344 -0.969,0 0,9.344 z m 1.688,0 0.937,0 0,-9.344 -0.937,0 0,9.344 z m 1.656,0 0.938,0 0,-9.344 -0.938,0 0,9.344 z m 1.656,0 0.719,0 0,-9.344 -0.719,0 0,9.344 z m 50.157,0 0.625,0 0,-9.344 -0.625,0 0,9.344 z m 1.343,0 0.969,0 0,-9.344 -0.969,0 0,9.344 z m 1.657,0 0.968,0 0,-9.344 -0.968,0 0,9.344 z m 1.656,0 0.969,0 0,-9.344 -0.969,0 0,9.344 z m 1.656,0 0.969,0 0,-9.344 -0.969,0 0,9.344 z m 1.656,0 0.969,0 0,-9.344 -0.969,0 0,9.344 z m 1.688,0 0.937,0 0,-9.344 -0.937,0 0,9.344 z m 1.656,0 0.969,0 0,-9.344 -0.969,0 0,9.344 z m 1.656,0 0.969,0 0,-9.344 -0.969,0 0,9.344 z m 1.657,0 0.968,0 0,-9.344 -0.968,0 0,9.344 z m 1.656,0 0.969,0 0,-9.344 -0.969,0 0,9.344 z m 1.656,0 0.969,0 0,-9.344 -0.969,0 0,9.344 z m 1.688,0 0.933,0 0,-9.344 -0.933,0 0,9.344 z m 1.656,0 0.937,0 0,-9.344 -0.937,0 0,9.344 z m 1.656,0 0.719,0 0,-9.344 -0.719,0 0,9.344 z m -67.375,-0.031 0.531,0 0,-9.344 -0.531,0 0,9.344 z m 1.25,0 0.969,0 0,-9.344 -0.969,0 0,9.344 z m 1.656,0 0.969,0 0,-9.344 -0.969,0 0,9.344 z m 1.657,0 0.968,0 0,-9.344 -0.968,0 0,9.344 z m 1.656,0 0.969,0 0,-9.344 -0.969,0 0,9.344 z m 1.656,0 0.969,0 0,-9.344 -0.969,0 0,9.344 z m 1.688,0 0.937,0 0,-9.344 -0.937,0 0,9.344 z m 1.656,0 0.969,0 0,-9.344 -0.969,0 0,9.344 z m 1.656,0 0.969,0 0,-9.344 -0.969,0 0,9.344 z m 1.656,0 0.969,0 0,-9.344 -0.969,0 0,9.344 z m 1.657,0 0.968,0 0,-9.344 -0.968,0 0,9.344 z m 1.656,0 0.969,0 0,-9.344 -0.969,0 0,9.344 z m 1.687,0 0.938,0 0,-9.344 -0.938,0 0,9.344 z m 1.657,0 0.937,0 0,-9.344 -0.937,0 0,9.344 z m 1.656,0 0.719,0 0,-9.344 -0.719,0 0,9.344 z m 50.25,0 0.562,0 0,-9.344 -0.562,0 0,9.344 z m 1.281,0 0.969,0 0,-9.344 -0.969,0 0,9.344 z m 1.656,0 0.965,0 0,-9.344 -0.965,0 0,9.344 z m 1.657,0 0.968,0 0,-9.344 -0.968,0 0,9.344 z m 1.656,0 0.969,0 0,-9.344 -0.969,0 0,9.344 z m 1.652,0 0.973,0 0,-9.344 -0.973,0 0,9.344 z m 1.692,0 0.937,0 0,-9.344 -0.937,0 0,9.344 z m 1.656,0 0.969,0 0,-9.344 -0.969,0 0,9.344 z m 1.652,0 0.973,0 0,-9.344 -0.973,0 0,9.344 z m 1.66,0 0.969,0 0,-9.344 -0.969,0 0,9.344 z m 1.657,0 0.968,0 0,-9.344 -0.968,0 0,9.344 z m 1.656,0 0.969,0 0,-9.344 -0.969,0 0,9.344 z m 1.687,0 0.938,0 0,-9.344 -0.938,0 0,9.344 z m 1.657,0 0.933,0 0,-9.344 -0.933,0 0,9.344 z"
         id="path8606" />
    </clipPath>
    <linearGradient
       x1="73.749901"
       y1="140.866"
       x2="73.749901"
       y2="123.443"
       gradientUnits="userSpaceOnUse"
       gradientTransform="matrix(1,0,0,-1,7.01006,170.199)"
       spreadMethod="pad"
       id="linearGradient8610">
      <stop
         style="stop-opacity:1;stop-color:#b16012"
         offset="0"
         id="stop8612" />
      <stop
         style="stop-opacity:1;stop-color:#d97516"
         offset="1"
         id="stop8614" />
    </linearGradient>
    <clipPath
       clipPathUnits="userSpaceOnUse"
       id="clipPath8634">
      <path
         d="m 60.148,78.989 0.633,0 c 4.91,0 8.887,-3.98 8.887,-8.887 l 0,-24.355 c 0,-4.91 -3.977,-8.891 -8.887,-8.891 l -0.633,0 c -4.91,0 -8.89,3.981 -8.89,8.891 l 0,24.355 c 0,4.907 3.98,8.887 8.89,8.887 z"
         id="path8636" />
    </clipPath>
    <clipPath
       clipPathUnits="userSpaceOnUse"
       id="clipPath8642">
      <path
         d="m 44.335918,87.81814 19,0 0,43.00001 -19,0 0,-43.00001 z"
         id="path8644" />
    </clipPath>
    <radialGradient
       fx="53.230999"
       fy="128.19299"
       cx="53.230999"
       cy="128.19299"
       r="54.875198"
       gradientUnits="userSpaceOnUse"
       spreadMethod="pad"
       id="radialGradient8646">
      <stop
         style="stop-opacity:0.8455024;stop-color:#ffffff"
         offset="0"
         id="stop8648" />
      <stop
         style="stop-opacity:0;stop-color:#ffffff"
         offset="1"
         id="stop8650" />
    </radialGradient>
    <mask
       maskUnits="userSpaceOnUse"
       x="0"
       y="0"
       width="1"
       height="1"
       id="mask8652">
      <g
         id="g8654">
        <g
           clip-path="url(#clipPath8642)"
           id="g8656">
          <path
             d="m 44.335918,87.81814 19,0 0,43.00001 -19,0 0,-43.00001 z"
             style="fill:url(#radialGradient8646);stroke:none"
             id="path8658" />
        </g>
      </g>
    </mask>
    <radialGradient
       fx="53.230999"
       fy="128.19299"
       cx="53.230999"
       cy="128.19299"
       r="54.875198"
       gradientUnits="userSpaceOnUse"
       spreadMethod="pad"
       id="radialGradient8662">
      <stop
         style="stop-opacity:1;stop-color:#93be05"
         offset="0"
         id="stop8664" />
      <stop
         style="stop-opacity:1;stop-color:#c8f019"
         offset="1"
         id="stop8666" />
    </radialGradient>
    <clipPath
       clipPathUnits="userSpaceOnUse"
       id="clipPath8674">
      <path
         d="m 59.699,45.356 -0.594,-1.125 -0.906,0.844 -0.562,-0.594 2.75,-2.562 -0.188,-19.156 0.813,0 0.187,17.937 2.063,1.813 -0.5,0.593 -1.563,-1.343 0,0.5 -1.5,1.406 0.719,1.312 -0.719,0.375 z"
         id="path8676" />
    </clipPath>
    <linearGradient
       x1="50.625"
       y1="136.14101"
       x2="56.25"
       y2="136.14101"
       gradientUnits="userSpaceOnUse"
       gradientTransform="matrix(1,0,0,-1,7.01006,170.199)"
       spreadMethod="pad"
       id="linearGradient8680">
      <stop
         style="stop-opacity:1;stop-color:#b16012"
         offset="0"
         id="stop8682" />
      <stop
         style="stop-opacity:1;stop-color:#d97516"
         offset="1"
         id="stop8684" />
    </linearGradient>
    <clipPath
       clipPathUnits="userSpaceOnUse"
       id="clipPath8692">
      <path
         d="m 106.387,78.989 0.633,0 c 4.91,0 8.89,-3.98 8.89,-8.887 l 0,-24.355 c 0,-4.91 -3.98,-8.891 -8.89,-8.891 l -0.633,0 c -4.91,0 -8.891,3.981 -8.891,8.891 l 0,24.355 c 0,4.907 3.981,8.887 8.891,8.887 z"
         id="path8694" />
    </clipPath>
    <clipPath
       clipPathUnits="userSpaceOnUse"
       id="clipPath8700">
      <path
         d="m 44.09644,87.81814 19,0 0,43.00001 -19,0 0,-43.00001 z"
         id="path8702" />
    </clipPath>
    <radialGradient
       fx="53.230999"
       fy="128.19299"
       cx="53.230999"
       cy="128.19299"
       r="54.875198"
       gradientUnits="userSpaceOnUse"
       spreadMethod="pad"
       id="radialGradient8704">
      <stop
         style="stop-opacity:0.8455024;stop-color:#ffffff"
         offset="0"
         id="stop8706" />
      <stop
         style="stop-opacity:0;stop-color:#ffffff"
         offset="1"
         id="stop8708" />
    </radialGradient>
    <mask
       maskUnits="userSpaceOnUse"
       x="0"
       y="0"
       width="1"
       height="1"
       id="mask8710">
      <g
         id="g8712">
        <g
           clip-path="url(#clipPath8700)"
           id="g8714">
          <path
             d="m 44.09644,87.81814 19,0 0,43.00001 -19,0 0,-43.00001 z"
             style="fill:url(#radialGradient8704);stroke:none"
             id="path8716" />
        </g>
      </g>
    </mask>
    <radialGradient
       fx="53.230999"
       fy="128.19299"
       cx="53.230999"
       cy="128.19299"
       r="54.875198"
       gradientUnits="userSpaceOnUse"
       spreadMethod="pad"
       id="radialGradient8720">
      <stop
         style="stop-opacity:1;stop-color:#93be05"
         offset="0"
         id="stop8722" />
      <stop
         style="stop-opacity:1;stop-color:#c8f019"
         offset="1"
         id="stop8724" />
    </radialGradient>
    <clipPath
       clipPathUnits="userSpaceOnUse"
       id="clipPath8732">
      <path
         d="m 105.949,45.356 -0.594,-1.156 -0.937,0.875 -0.531,-0.594 2.75,-2.562 -0.188,-19.156 0.781,0 0.188,17.937 2.094,1.813 -0.532,0.593 -1.562,-1.343 0,0.5 -1.469,1.375 0.719,1.343 -0.719,0.375 z"
         id="path8734" />
    </clipPath>
    <linearGradient
       x1="96.875"
       y1="136.14101"
       x2="102.5"
       y2="136.14101"
       gradientUnits="userSpaceOnUse"
       gradientTransform="matrix(1,0,0,-1,7.01006,170.199)"
       spreadMethod="pad"
       id="linearGradient8738">
      <stop
         style="stop-opacity:1;stop-color:#b16012"
         offset="0"
         id="stop8740" />
      <stop
         style="stop-opacity:1;stop-color:#d97516"
         offset="1"
         id="stop8742" />
    </linearGradient>
  </defs>
  <metadata
     id="metadata8323">
    <rdf:RDF>
      <cc:Work
         rdf:about="">
        <dc:format>image/svg+xml</dc:format>
        <dc:type
           rdf:resource="http://purl.org/dc/dcmitype/StillImage" />
        <dc:title></dc:title>
      </cc:Work>
    </rdf:RDF>
  </metadata>
  <g
     transform="translate(-209.77316,-273.70971)"
     id="layer1">
    <path
       d="m 266.49191,381.14596 c 0.37625,0 0.7225,0.0688 1.035,0.19625 0.3225,0.13125 0.615,0.33125 0.87875,0.605 0.27375,0.26375 0.47375,0.55625 0.60625,0.87875 0.12625,0.3125 0.195,0.66 0.195,1.035 0,0.38125 -0.0687,0.7225 -0.195,1.035 -0.1325,0.3125 -0.3325,0.60625 -0.60625,0.88 -0.26375,0.26375 -0.55625,0.46375 -0.87875,0.605 -0.3125,0.13125 -0.65875,0.195 -1.035,0.195 -0.36625,0 -0.7125,-0.0638 -1.035,-0.195 -0.3275,-0.14125 -0.62,-0.34125 -0.87875,-0.605 -0.27375,-0.27375 -0.47875,-0.5675 -0.605,-0.88 -0.1325,-0.3125 -0.19625,-0.65375 -0.19625,-1.035 0,-0.375 0.0638,-0.7225 0.19625,-1.035 0.12625,-0.3225 0.33125,-0.615 0.605,-0.87875 0.25875,-0.27375 0.55125,-0.47375 0.87875,-0.605 0.3225,-0.1275 0.66875,-0.19625 1.035,-0.19625 z m 0,0.37125 c -0.3275,0 -0.625,0.0588 -0.89875,0.17625 -0.2725,0.1075 -0.52625,0.27375 -0.76125,0.5075 -0.225,0.235 -0.39,0.49875 -0.5075,0.78125 -0.1175,0.27375 -0.17625,0.56625 -0.17625,0.87875 0,0.3125 0.0587,0.61625 0.17625,0.89875 0.1175,0.27375 0.2825,0.5225 0.5075,0.7425 0.235,0.23375 0.48875,0.41 0.76125,0.5275 0.27375,0.11625 0.57125,0.175 0.89875,0.175 0.3225,0 0.625,-0.0587 0.89875,-0.175 0.27375,-0.1175 0.5275,-0.29375 0.76125,-0.5275 0.22,-0.22 0.39125,-0.46875 0.50875,-0.7425 0.11625,-0.27375 0.175,-0.57125 0.175,-0.89875 0,-0.32125 -0.0588,-0.625 -0.175,-0.8975 -0.1175,-0.27375 -0.28875,-0.5275 -0.50875,-0.7625 -0.23375,-0.23375 -0.4875,-0.4 -0.76125,-0.5075 -0.27375,-0.1175 -0.57625,-0.17625 -0.89875,-0.17625 z m 1.09375,0.89875 0,0.46875 c -0.15625,-0.0775 -0.3225,-0.13625 -0.4875,-0.17625 -0.15625,-0.0387 -0.3125,-0.0575 -0.46875,-0.0575 -0.36625,0 -0.655,0.11125 -0.86,0.33125 -0.195,0.21 -0.2925,0.50375 -0.2925,0.87875 0,0.39125 0.1025,0.69375 0.3125,0.89875 0.205,0.21 0.4975,0.3125 0.87875,0.3125 0.15625,0 0.3025,-0.01 0.44875,-0.0387 0.15625,-0.0387 0.3125,-0.1025 0.46875,-0.195 l 0,0.46875 c -0.15625,0.0775 -0.3225,0.13625 -0.4875,0.175 -0.17125,0.03 -0.3425,0.0387 -0.50875,0.0387 -0.53625,0 -0.95625,-0.14625 -1.26875,-0.44875 -0.30375,-0.2975 -0.45,-0.7025 -0.45,-1.21125 0,-0.5075 0.14625,-0.9075 0.45,-1.21 0.3125,-0.29875 0.7325,-0.45 1.26875,-0.45 0.16625,0 0.3375,0.02 0.50875,0.0587 0.165,0.0387 0.33125,0.0925 0.4875,0.15625 z"
       style="fill:#be6816;fill-opacity:1;fill-rule:nonzero;stroke:none"
       id="path8442" />
    <path
       d="m 275.95066,384.01721 c 0.165,0.0538 0.32125,0.17125 0.46875,0.3525 0.15625,0.17 0.3025,0.405 0.44875,0.7025 l 0.76125,1.50375 -0.8,0 -0.70375,-1.40625 c -0.185,-0.36125 -0.36125,-0.605 -0.5275,-0.7225 -0.17,-0.1175 -0.4,-0.17625 -0.68375,-0.17625 l -0.8,0 0,2.305 -0.7425,0 0,-5.46875 1.66,0 c 0.625,0 1.08375,0.1325 1.3875,0.39125 0.3125,0.26375 0.46875,0.65875 0.46875,1.19125 0,0.34125 -0.0788,0.625 -0.235,0.85875 -0.15625,0.225 -0.39,0.38125 -0.7025,0.46875 z m -1.83625,-2.30375 0,1.9525 0.9175,0 c 0.36125,0 0.635,-0.0825 0.82,-0.25375 0.18125,-0.16625 0.27375,-0.41 0.27375,-0.7225 0,-0.3225 -0.0925,-0.56625 -0.27375,-0.7225 -0.185,-0.16625 -0.45875,-0.25375 -0.82,-0.25375 l -0.9175,0 z"
       style="fill:#be6816;fill-opacity:1;fill-rule:nonzero;stroke:none"
       id="path8444" />
    <path
       d="m 279.81191,382.94346 c -0.36625,0 -0.65375,0.14625 -0.85875,0.43 -0.21,0.2725 -0.3125,0.65875 -0.3125,1.1525 0,0.4975 0.1025,0.88875 0.3125,1.17125 0.205,0.27375 0.4925,0.41 0.85875,0.41 0.3525,0 0.63,-0.13625 0.84,-0.41 0.205,-0.2825 0.3125,-0.67375 0.3125,-1.17125 0,-0.47875 -0.1075,-0.865 -0.3125,-1.1525 -0.21,-0.28375 -0.4875,-0.43 -0.84,-0.43 z m 0,-0.56625 c 0.58625,0 1.04,0.19 1.3675,0.56625 0.3375,0.38125 0.5075,0.90875 0.5075,1.5825 0,0.67875 -0.17,1.205 -0.5075,1.58125 -0.3275,0.38125 -0.78125,0.56625 -1.3675,0.56625 -0.6,0 -1.06875,-0.185 -1.40625,-0.56625 -0.32625,-0.37625 -0.4875,-0.9025 -0.4875,-1.58125 0,-0.67375 0.16125,-1.20125 0.4875,-1.5825 0.3375,-0.37625 0.80625,-0.56625 1.40625,-0.56625 z"
       style="fill:#be6816;fill-opacity:1;fill-rule:nonzero;stroke:none"
       id="path8446" />
    <path
       d="m 286.31191,384.34971 0,0.3325 -3.10625,0 c 0.025,0.46875 0.16125,0.83 0.41,1.07375 0.25875,0.23375 0.61125,0.35125 1.055,0.35125 0.25875,0 0.5075,-0.0288 0.7425,-0.0975 0.24375,-0.0637 0.4925,-0.15625 0.7425,-0.27375 l 0,0.625 c -0.25,0.1075 -0.50375,0.18625 -0.7625,0.235 -0.24875,0.0487 -0.5025,0.0775 -0.76125,0.0775 -0.655,0 -1.1725,-0.185 -1.5625,-0.56625 -0.38125,-0.37625 -0.56625,-0.88875 -0.56625,-1.5425 0,-0.67375 0.18,-1.21125 0.54625,-1.60125 0.36125,-0.39125 0.85,-0.58625 1.465,-0.58625 0.55625,0 0.99625,0.175 1.30875,0.5275 0.3225,0.35125 0.48875,0.835 0.48875,1.445 z m -0.68375,-0.195 c 0,-0.36125 -0.1075,-0.655 -0.3125,-0.87875 -0.19625,-0.22 -0.45875,-0.3325 -0.78125,-0.3325 -0.38125,0 -0.68375,0.1125 -0.91875,0.3325 -0.22375,0.21 -0.35125,0.5025 -0.39,0.87875 l 2.4025,0 z"
       style="fill:#be6816;fill-opacity:1;fill-rule:nonzero;stroke:none"
       id="path8448" />
    <path
       d="m 287.41066,380.87346 0.68375,0 0,5.7025 -0.68375,0 0,-5.7025 z"
       style="fill:#be6816;fill-opacity:1;fill-rule:nonzero;stroke:none"
       id="path8450" />
    <path
       d="m 295.19816,381.28346 0,0.7225 c -0.2875,-0.1275 -0.55625,-0.225 -0.80125,-0.2925 -0.24875,-0.0637 -0.4875,-0.0987 -0.7225,-0.0987 -0.405,0 -0.7175,0.0788 -0.9375,0.235 -0.22375,0.15625 -0.33125,0.38125 -0.33125,0.66375 0,0.235 0.0675,0.42 0.21375,0.5475 0.1575,0.11625 0.435,0.215 0.84,0.2925 l 0.45,0.0975 c 0.54625,0.1075 0.9475,0.29375 1.21,0.56625 0.26,0.26375 0.39125,0.61625 0.39125,1.055 0,0.5225 -0.17625,0.9175 -0.5275,1.19125 -0.35125,0.27375 -0.87375,0.41 -1.5625,0.41 -0.26375,0 -0.54125,-0.0337 -0.84,-0.0975 -0.2875,-0.0487 -0.58625,-0.12625 -0.89875,-0.23375 l 0,-0.7625 c 0.3125,0.17125 0.61125,0.30375 0.89875,0.39125 0.28375,0.0775 0.56625,0.1175 0.84,0.1175 0.43,0 0.7525,-0.0838 0.97625,-0.255 0.235,-0.165 0.3525,-0.4 0.3525,-0.7025 0,-0.27375 -0.0888,-0.47875 -0.255,-0.625 -0.155,-0.15625 -0.42375,-0.27375 -0.8,-0.35125 l -0.45,-0.0975 c -0.56125,-0.1025 -0.96625,-0.27375 -1.21,-0.50875 -0.24875,-0.23375 -0.37125,-0.55625 -0.37125,-0.97625 0,-0.47875 0.16625,-0.85875 0.5075,-1.1325 0.35125,-0.28375 0.825,-0.43 1.42625,-0.43 0.24375,0 0.4975,0.03 0.76125,0.0788 0.27375,0.0387 0.5525,0.1075 0.84,0.195 z"
       style="fill:#be6816;fill-opacity:1;fill-rule:nonzero;stroke:none"
       id="path8452" />
    <path
       d="m 297.30316,385.95096 0,2.1875 -0.68375,0 0,-5.66375 0.68375,0 0,0.625 c 0.12625,-0.24375 0.3025,-0.43 0.52625,-0.5475 0.22,-0.11625 0.47875,-0.175 0.78125,-0.175 0.49375,0 0.89875,0.205 1.21125,0.605 0.3125,0.39125 0.46875,0.90875 0.46875,1.54375 0,0.65375 -0.15625,1.17125 -0.46875,1.5625 -0.3125,0.39 -0.7175,0.585 -1.21125,0.585 -0.3025,0 -0.56125,-0.0587 -0.78125,-0.175 -0.22375,-0.1175 -0.4,-0.29875 -0.52625,-0.5475 z m 2.285,-1.425 c 0,-0.49375 -0.1075,-0.88 -0.3125,-1.1525 -0.19625,-0.28375 -0.47875,-0.43 -0.84,-0.43 -0.35125,0 -0.635,0.14625 -0.84,0.43 -0.195,0.2725 -0.2925,0.65875 -0.2925,1.1525 0,0.4975 0.0975,0.88875 0.2925,1.17125 0.205,0.28875 0.48875,0.43 0.84,0.43 0.36125,0 0.64375,-0.14125 0.84,-0.43 0.205,-0.2825 0.3125,-0.67375 0.3125,-1.17125 z"
       style="fill:#be6816;fill-opacity:1;fill-rule:nonzero;stroke:none"
       id="path8454" />
    <path
       d="m 303.00066,382.94346 c -0.36625,0 -0.65375,0.14625 -0.85875,0.43 -0.21,0.2725 -0.3125,0.65875 -0.3125,1.1525 0,0.4975 0.1025,0.88875 0.3125,1.17125 0.205,0.27375 0.4925,0.41 0.85875,0.41 0.35125,0 0.63,-0.13625 0.84,-0.41 0.205,-0.2825 0.3125,-0.67375 0.3125,-1.17125 0,-0.47875 -0.1075,-0.865 -0.3125,-1.1525 -0.21,-0.28375 -0.48875,-0.43 -0.84,-0.43 z m 0,-0.56625 c 0.58625,0 1.04,0.19 1.3675,0.56625 0.33625,0.38125 0.5075,0.90875 0.5075,1.5825 0,0.67875 -0.17125,1.205 -0.5075,1.58125 -0.3275,0.38125 -0.78125,0.56625 -1.3675,0.56625 -0.6,0 -1.06875,-0.185 -1.40625,-0.56625 -0.3275,-0.37625 -0.4875,-0.9025 -0.4875,-1.58125 0,-0.67375 0.16,-1.20125 0.4875,-1.5825 0.3375,-0.37625 0.80625,-0.56625 1.40625,-0.56625 z"
       style="fill:#be6816;fill-opacity:1;fill-rule:nonzero;stroke:none"
       id="path8456" />
    <path
       d="m 307.58566,382.94346 c -0.36625,0 -0.65375,0.14625 -0.85875,0.43 -0.21,0.2725 -0.3125,0.65875 -0.3125,1.1525 0,0.4975 0.1025,0.88875 0.3125,1.17125 0.205,0.27375 0.4925,0.41 0.85875,0.41 0.35125,0 0.63,-0.13625 0.84,-0.41 0.205,-0.2825 0.3125,-0.67375 0.3125,-1.17125 0,-0.47875 -0.1075,-0.865 -0.3125,-1.1525 -0.21,-0.28375 -0.48875,-0.43 -0.84,-0.43 z m 0,-0.56625 c 0.58625,0 1.04,0.19 1.3675,0.56625 0.33625,0.38125 0.5075,0.90875 0.5075,1.5825 0,0.67875 -0.17125,1.205 -0.5075,1.58125 -0.3275,0.38125 -0.78125,0.56625 -1.3675,0.56625 -0.6,0 -1.06875,-0.185 -1.40625,-0.56625 -0.3275,-0.37625 -0.4875,-0.9025 -0.4875,-1.58125 0,-0.67375 0.16,-1.20125 0.4875,-1.5825 0.3375,-0.37625 0.80625,-0.56625 1.40625,-0.56625 z"
       style="fill:#be6816;fill-opacity:1;fill-rule:nonzero;stroke:none"
       id="path8458" />
    <path
       d="m 312.95191,383.09971 c -0.0775,-0.0387 -0.16625,-0.0638 -0.25375,-0.0788 -0.0925,-0.0238 -0.19,-0.0387 -0.2925,-0.0387 -0.38125,0 -0.67375,0.1275 -0.87875,0.37125 -0.19625,0.24875 -0.29375,0.60125 -0.29375,1.055 l 0,2.1675 -0.68375,0 0,-4.10125 0.68375,0 0,0.645 c 0.1275,-0.25875 0.3025,-0.45 0.5275,-0.5675 0.23375,-0.11625 0.5125,-0.175 0.84,-0.175 0.0487,0 0.1025,0.01 0.15625,0.0188 0.0487,0 0.1175,0.01 0.195,0.02 l 0,0.68375 z"
       style="fill:#be6816;fill-opacity:1;fill-rule:nonzero;stroke:none"
       id="path8460" />
    <path
       d="m 317.01441,384.34971 0,0.3325 -3.105,0 c 0.0238,0.46875 0.16125,0.83 0.41,1.07375 0.25875,0.23375 0.61,0.35125 1.055,0.35125 0.25875,0 0.5075,-0.0288 0.74125,-0.0975 0.245,-0.0637 0.49375,-0.15625 0.7425,-0.27375 l 0,0.625 c -0.24875,0.1075 -0.5025,0.18625 -0.76125,0.235 -0.24875,0.0487 -0.50375,0.0775 -0.7625,0.0775 -0.65375,0 -1.17125,-0.185 -1.5625,-0.56625 -0.38,-0.37625 -0.56625,-0.88875 -0.56625,-1.5425 0,-0.67375 0.18125,-1.21125 0.5475,-1.60125 0.36125,-0.39125 0.84875,-0.58625 1.465,-0.58625 0.55625,0 0.99625,0.175 1.30875,0.5275 0.32125,0.35125 0.4875,0.835 0.4875,1.445 z m -0.68375,-0.195 c 0,-0.36125 -0.1075,-0.655 -0.3125,-0.87875 -0.195,-0.22 -0.45875,-0.3325 -0.78125,-0.3325 -0.38,0 -0.68375,0.1125 -0.9175,0.3325 -0.225,0.21 -0.35125,0.5025 -0.39125,0.87875 l 2.4025,0 z"
       style="fill:#be6816;fill-opacity:1;fill-rule:nonzero;stroke:none"
       id="path8462" />
    <path
       d="m 321.53066,384.09596 0,2.48 -0.6825,0 0,-2.46125 c 0,-0.375 -0.0788,-0.66375 -0.235,-0.85875 -0.14625,-0.195 -0.36625,-0.2925 -0.66375,-0.2925 -0.36625,0 -0.655,0.11625 -0.86,0.35125 -0.21,0.23375 -0.3125,0.54625 -0.3125,0.9375 l 0,2.32375 -0.68375,0 0,-4.10125 0.68375,0 0,0.645 c 0.15625,-0.245 0.3425,-0.43 0.56625,-0.5475 0.22,-0.12625 0.46875,-0.195 0.7425,-0.195 0.47875,0 0.84,0.15125 1.075,0.44875 0.24375,0.28875 0.37,0.71375 0.37,1.27 z"
       style="fill:#be6816;fill-opacity:1;fill-rule:nonzero;stroke:none"
       id="path8464" />
    <path
       d="m 326.00441,385.95096 2.5775,0 0,0.625 -3.47625,0 0,-0.625 c 0.2825,-0.2825 0.66875,-0.66875 1.1525,-1.1525 0.4775,-0.4925 0.78625,-0.81 0.9175,-0.95625 0.235,-0.27375 0.395,-0.49875 0.48875,-0.68375 0.0875,-0.18125 0.13625,-0.36125 0.13625,-0.5475 0,-0.2825 -0.1075,-0.5175 -0.3125,-0.7025 -0.195,-0.18125 -0.45875,-0.27375 -0.78125,-0.27375 -0.23375,0 -0.48375,0.0387 -0.7425,0.1175 -0.24875,0.0775 -0.5225,0.205 -0.82,0.37125 l 0,-0.7425 c 0.2975,-0.1275 0.57625,-0.22 0.84,-0.27375 0.25875,-0.0638 0.4925,-0.0975 0.7025,-0.0975 0.57125,0 1.02125,0.14625 1.34875,0.43 0.33625,0.27375 0.5075,0.65375 0.5075,1.1325 0,0.225 -0.0487,0.44 -0.1375,0.645 -0.0775,0.195 -0.22875,0.42875 -0.44875,0.7025 -0.0537,0.0687 -0.24875,0.26875 -0.58625,0.60625 -0.32625,0.34125 -0.78125,0.815 -1.36625,1.425 z"
       style="fill:#be6816;fill-opacity:1;fill-rule:nonzero;stroke:none"
       id="path8466" />
    <path
       d="m 331.71691,381.59596 c -0.38125,0 -0.66375,0.19 -0.86,0.56625 -0.195,0.38125 -0.2925,0.9375 -0.2925,1.68 0,0.75625 0.0975,1.3225 0.2925,1.69875 0.19625,0.36625 0.47875,0.5475 0.86,0.5475 0.39,0 0.67375,-0.18125 0.85875,-0.5475 0.19625,-0.37625 0.29375,-0.9425 0.29375,-1.69875 0,-0.7425 -0.0975,-1.29875 -0.29375,-1.68 -0.185,-0.37625 -0.46875,-0.56625 -0.85875,-0.56625 z m 0,-0.58625 c 0.61,0 1.07875,0.24375 1.40625,0.7225 0.3225,0.48375 0.4875,1.18625 0.4875,2.11 0,0.9275 -0.165,1.63 -0.4875,2.10875 -0.3275,0.48375 -0.79625,0.7225 -1.40625,0.7225 -0.615,0 -1.08375,-0.23875 -1.40625,-0.7225 -0.3275,-0.47875 -0.48875,-1.18125 -0.48875,-2.10875 0,-0.92375 0.16125,-1.62625 0.48875,-2.11 0.3225,-0.47875 0.79125,-0.7225 1.40625,-0.7225 z"
       style="fill:#be6816;fill-opacity:1;fill-rule:nonzero;stroke:none"
       id="path8468" />
    <path
       d="m 335.04691,385.95096 1.21125,0 0,-4.16 -1.32875,0.25375 0,-0.66375 1.30875,-0.27375 0.7425,0 0,4.84375 1.21125,0 0,0.625 -3.145,0 0,-0.625 z"
       style="fill:#be6816;fill-opacity:1;fill-rule:nonzero;stroke:none"
       id="path8470" />
    <path
       d="m 339.68566,381.10721 2.91,0 0,0.625 -2.22625,0 0,1.3475 c 0.1025,-0.0387 0.205,-0.0625 0.3125,-0.0775 0.11625,-0.025 0.22375,-0.0387 0.33125,-0.0387 0.61125,0 1.09375,0.17 1.44625,0.5075 0.36125,0.3275 0.54625,0.77625 0.54625,1.3475 0,0.58625 -0.185,1.045 -0.54625,1.3675 -0.36625,0.32625 -0.88875,0.4875 -1.5625,0.4875 -0.225,0 -0.46,-0.0187 -0.70375,-0.0587 -0.23375,-0.0387 -0.47875,-0.0975 -0.7225,-0.175 l 0,-0.7425 c 0.22,0.1325 0.44875,0.23 0.68375,0.2925 0.23375,0.0537 0.47875,0.0788 0.7425,0.0788 0.415,0 0.74625,-0.1075 0.995,-0.3325 0.245,-0.23375 0.37125,-0.53625 0.37125,-0.9175 0,-0.37625 -0.12625,-0.67375 -0.37125,-0.89875 -0.24875,-0.22 -0.58,-0.33125 -0.995,-0.33125 -0.21,0 -0.41125,0.0288 -0.60625,0.0775 -0.195,0.0387 -0.4,0.1075 -0.605,0.195 l 0,-2.75375 z"
       style="fill:#be6816;fill-opacity:1;fill-rule:nonzero;stroke:none"
       id="path8472" />
    <g
       transform="matrix(1.25,0,0,-1.25,189.72941,412.67596)"
       id="g8474">
      <g
         id="g8476"
         clip-path="url(#clipPath8478)">
        <g
           id="g8482">
          <path
             d="m 101.559,111.173 c -11.133,0 -20.188,-9.762 -20.188,-21.813 0,-0.718 0.531,-4.867 0.531,-4.867 0,0 -4.214,4.309 -10.511,4.785 C 48.191,91.028 40.23,77.892 37.457,62.743 L 31.57,62.7 c -8.5,0 -15.394,-7.687 -15.394,-17.172 l 0,-16.515 185.094,0 0,7.187 c 4.32,5.699 6.996,12.922 6.996,20.871 0,18.238 -13.649,32.988 -30.496,32.988 -0.141,0 -0.27,-0.039 -0.407,-0.042 -1.058,10.972 -9.511,19.554 -19.925,19.554 -11.133,0 -20.188,-9.762 -20.188,-21.812 0,-0.27 0.066,-0.516 0.074,-0.782 -4.543,2.911 -9.769,4.723 -15.433,4.723 -0.137,0 -0.266,-0.039 -0.407,-0.039 -1.074,10.953 -9.523,19.512 -19.925,19.512 z"
             style="fill:url(#radialGradient8484);stroke:none"
             id="path8490" />
        </g>
      </g>
    </g>
    <path
       d="m 302.37566,307.43596 c 0,-1.685 1.3675,-3.0525 3.0525,-3.0525 1.68875,0 3.05625,1.3675 3.05625,3.0525 0,1.68875 -1.3675,3.05625 -3.05625,3.05625 -1.685,0 -3.0525,-1.3675 -3.0525,-3.05625 z"
       style="fill:#ffffff;fill-opacity:1;fill-rule:nonzero;stroke:none"
       id="path8492" />
    <path
       d="m 316.29191,287.68971 c 0,-1.69 1.3675,-3.05625 3.05625,-3.05625 1.685,0 3.0525,1.36625 3.0525,3.05625 0,1.68375 -1.3675,3.05125 -3.0525,3.05125 -1.68875,0 -3.05625,-1.3675 -3.05625,-3.05125 z"
       style="fill:#ffffff;fill-opacity:1;fill-rule:nonzero;stroke:none"
       id="path8494" />
    <path
       d="m 342.93691,312.85596 c 0,-1.69 1.3675,-3.0575 3.0525,-3.0575 1.68875,0 3.05625,1.3675 3.05625,3.0575 0,1.68375 -1.3675,3.05125 -3.05625,3.05125 -1.685,0 -3.0525,-1.3675 -3.0525,-3.05125 z"
       style="fill:#ffffff;fill-opacity:1;fill-rule:nonzero;stroke:none"
       id="path8496" />
    <path
       d="m 361.96566,325.04846 c 0,-1.69 1.3675,-3.0575 3.05125,-3.0575 1.69,0 3.0575,1.3675 3.0575,3.0575 0,1.68375 -1.3675,3.05125 -3.0575,3.05125 -1.68375,0 -3.05125,-1.3675 -3.05125,-3.05125 z"
       style="fill:#ffffff;fill-opacity:1;fill-rule:nonzero;stroke:none"
       id="path8498" />
    <path
       d="m 372.26316,299.36971 c 0,-1.69 1.3675,-3.0575 3.0575,-3.0575 1.68375,0 3.05125,1.3675 3.05125,3.0575 0,1.68375 -1.3675,3.05125 -3.05125,3.05125 -1.69,0 -3.0575,-1.3675 -3.0575,-3.05125 z"
       style="fill:#ffffff;fill-opacity:1;fill-rule:nonzero;stroke:none"
       id="path8500" />
    <path
       d="m 348.65566,339.46721 c 0,-1.69 1.36625,-3.0575 3.05625,-3.0575 1.685,0 3.05125,1.3675 3.05125,3.0575 0,1.68375 -1.36625,3.05125 -3.05125,3.05125 -1.69,0 -3.05625,-1.3675 -3.05625,-3.05125 z"
       style="fill:#ffffff;fill-opacity:1;fill-rule:nonzero;stroke:none"
       id="path8502" />
    <g
       transform="matrix(1.25,0,0,-1.25,189.72941,412.67596)"
       id="g8504">
      <g
         id="g8506"
         clip-path="url(#clipPath8508)">
        <g
           id="g8512">
          <path
             d="M 16.949,29.017 C 19.012,22.243 24.711,17.329 31.48,17.329 l 154.313,0 c 6.769,0 12.437,4.918 14.5,11.688 l -183.344,0 z"
             style="fill:url(#radialGradient8514);stroke:none"
             id="path8522" />
        </g>
      </g>
    </g>
    <g
       transform="matrix(1.25,0,0,-1.25,189.72941,412.67596)"
       id="g8524">
      <g
         id="g8526"
         clip-path="url(#clipPath8528)">
        <g
           id="g8532">
          <path
             d="m 158,101.306 3.562,0 0,-13.32 -3.562,0 0,13.32 z"
             style="fill:url(#linearGradient8534);stroke:none"
             id="path8540" />
        </g>
      </g>
    </g>
    <path
       d="m 210.71066,351.47346 -0.9375,0.7425 0,0.46875 6.5625,0 0,-0.5075 -0.9375,-0.70375 -4.6875,0 z m 35.82,0 -0.9375,0.7425 0,0.46875 6.5625,0 0,-0.5075 -0.9375,-0.70375 -4.6875,0 z m 91.40625,0 -0.97625,0.7425 0,0.46875 6.5625,0 0,-0.5075 -0.89875,-0.70375 -4.6875,0 z m -31.1325,0.0387 -24.53125,0.04 -0.97625,0.7025 0,0.5075 26.40625,0 0,-0.585 -0.89875,-0.665 z m 66.83625,0 -0.9375,0.7425 0,0.46875 6.5625,0 0,-0.5075 -0.9375,-0.70375 -4.6875,0 z m -163.75,18.4775 0,6.40625 77.73375,0 0,-6.3675 -35.7025,0 0,-0.0387 -42.03125,0 z m 91.40625,0.0387 0,6.3675 77.73375,0 0,-6.3675 -77.73375,0 z"
       style="fill:#ffffff;fill-opacity:1;fill-rule:nonzero;stroke:none"
       id="path8542" />
    <g
       transform="matrix(1.25,0,0,-1.25,189.72941,412.67596)"
       id="g8544">
      <g
         id="g8546"
         clip-path="url(#clipPath8548)">
        <g
           id="g8552">
          <path
             d="m 167.41,101.427 56.133,0 0,-22.364 -72.27,0 16.137,22.364 z"
             style="fill:url(#radialGradient8554);stroke:none"
             id="path8560" />
        </g>
      </g>
    </g>
    <g
       transform="matrix(1.25,0,0,-1.25,189.72941,412.67596)"
       id="g8562">
      <g
         id="g8564"
         clip-path="url(#clipPath8566)">
        <g
           id="g8570">
          <path
             d="m 220.934,101.403 2.609,0 0,-9.758 -2.609,0 0,9.758 z"
             style="fill:url(#linearGradient8572);stroke:none"
             id="path8578" />
        </g>
      </g>
    </g>
    <g
       transform="matrix(1.25,0,0,-1.25,189.72941,412.67596)"
       id="g8580">
      <g
         id="g8582"
         clip-path="url(#clipPath8584)">
        <g
           id="g8588">
          <path
             d="m 151.164,75.376 72.551,0 0,-51.902 -72.551,0 0,51.902 z"
             style="fill:url(#linearGradient8590);stroke:none"
             id="path8596" />
        </g>
      </g>
    </g>
    <path
       d="m 372.83941,352.75346 6.255,0 0,17.275 -6.255,0 0,-17.275 z"
       style="fill:#c06916;fill-opacity:1;fill-rule:nonzero;stroke:none"
       id="path8598" />
    <g
       transform="matrix(1.25,0,0,-1.25,189.72941,412.67596)"
       id="g8600">
      <g
         id="g8602"
         clip-path="url(#clipPath8604)">
        <g
           id="g8608">
          <path
             d="m 16.137,48.044 0,-13.813 5.031,0 0,1.188 0.625,0 0,-0.625 0.719,0 0,0.625 0.968,0 0,-0.625 0.688,0 0,0.625 0.969,0 0,-0.625 0.687,0 0,0.625 0.969,0 0,-0.625 0.687,0 0,0.625 0.969,0 0,-0.625 0.688,0 0,0.625 0.968,0 0,-0.625 0.719,0 0,0.625 0.938,0 0,-0.625 0.718,0 0,0.625 0.969,0 0,-0.625 0.688,0 0,0.625 0.968,0 0,-0.625 0.688,0 0,0.625 0.969,0 0,-0.625 0.687,0 0,0.625 0.969,0 0,-0.625 0.687,0 0,0.625 0.969,0 0,-0.625 0.719,0 0,0.625 0.937,0 0,-0.625 0.719,0 0,0.625 0.938,0 0,-0.625 0.718,0 0,0.625 0.719,0 0,-1.281 5,0 0,1.25 0.531,0 0,-0.625 0.719,0 0,0.625 0.969,0 0,-0.625 0.687,0 0,0.625 0.969,0 0,-0.625 0.688,0 0,0.625 0.968,0 0,-0.625 0.688,0 0,0.625 0.969,0 0,-0.625 0.687,0 0,0.625 0.969,0 0,-0.625 0.719,0 0,0.625 0.937,0 0,-0.625 0.719,0 0,0.625 0.969,0 0,-0.625 0.687,0 0,0.625 0.969,0 0,-0.625 0.687,0 0,0.625 0.969,0 0,-0.625 0.688,0 0,0.625 0.968,0 0,-0.625 0.688,0 0,0.625 0.969,0 0,-0.625 0.718,0 0,0.625 0.938,0 0,-0.625 0.719,0 0,0.625 0.937,0 0,-0.625 0.719,0 0,0.625 0.719,0 0,-1.282 1.968,0 0,-5.093 4.407,0 0,14.187 c 0,0 2,0.813 4.062,0.813 2.059,0 4.156,-0.813 4.156,-0.813 l 0,-14.187 4.438,0 0,5.125 1.844,0 0,1.281 0.625,0 0,-0.625 0.718,0 0,0.625 0.969,0 0,-0.625 0.688,0 0,0.625 0.968,0 0,-0.625 0.688,0 0,0.625 0.969,0 0,-0.625 0.687,0 0,0.625 0.969,0 0,-0.625 0.687,0 0,0.625 0.969,0 0,-0.625 0.719,0 0,0.625 0.937,0 0,-0.625 0.719,0 0,0.625 0.969,0 0,-0.625 0.687,0 0,0.625 0.969,0 0,-0.625 0.688,0 0,0.625 0.968,0 0,-0.625 0.688,0 0,0.625 0.969,0 0,-0.625 0.687,0 0,0.625 0.969,0 0,-0.625 0.719,0 0,0.625 0.933,0 0,-0.625 0.723,0 0,0.625 0.937,0 0,-0.625 0.719,0 0,0.625 0.719,0 0,-1.281 5,0 0,1.25 0.562,0 0,-0.625 0.719,0 0,0.625 0.969,0 0,-0.625 0.687,0 0,0.625 0.965,0 0,-0.625 0.692,0 0,0.625 0.968,0 0,-0.625 0.688,0 0,0.625 0.969,0 0,-0.625 0.683,0 0,0.625 0.973,0 0,-0.625 0.719,0 0,0.625 0.937,0 0,-0.625 0.719,0 0,0.625 0.969,0 0,-0.625 0.683,0 0,0.625 0.973,0 0,-0.625 0.687,0 0,0.625 0.969,0 0,-0.625 0.688,0 0,0.625 0.968,0 0,-0.625 0.688,0 0,0.625 0.969,0 0,-0.625 0.718,0 0,0.625 0.938,0 0,-0.625 0.719,0 0,0.625 0.933,0 0,-0.625 0.723,0 0,0.625 0.777,0 0,0.687 -0.777,0 0,9.344 0.777,0 0,0.687 -0.777,0 0,1.157 -0.723,0 0,-1.157 -0.933,0 0,1.157 -0.719,0 0,-1.157 -0.938,0 0,1.157 -0.718,0 0,-1.157 -0.969,0 0,1.157 -0.688,0 0,-1.157 -0.968,0 0,1.157 -0.688,0 0,-1.157 -0.969,0 0,1.157 -0.687,0 0,-1.157 -0.973,0 0,1.157 -0.683,0 0,-1.157 -0.969,0 0,1.157 -0.719,0 0,-1.157 -0.937,0 0,1.157 -0.719,0 0,-1.157 -0.973,0 0,1.157 -0.683,0 0,-1.157 -0.969,0 0,1.157 -0.688,0 0,-1.157 -0.968,0 0,1.157 -0.692,0 0,-1.157 -0.965,0 0,1.157 -0.687,0 0,-1.157 -0.969,0 0,1.157 -0.719,0 0,-1.157 -0.562,0 0,1.844 -5,0 0,-1.812 -0.719,0 0,1.156 -0.719,0 0,-1.156 -0.937,0 0,1.156 -0.723,0 0,-1.156 -0.933,0 0,1.156 -0.719,0 0,-1.156 -0.969,0 0,1.156 -0.687,0 0,-1.156 -0.969,0 0,1.156 -0.688,0 0,-1.156 -0.968,0 0,1.156 -0.688,0 0,-1.156 -0.969,0 0,1.156 -0.687,0 0,-1.156 -0.969,0 0,1.156 -0.719,0 0,-1.156 -0.937,0 0,1.156 -0.719,0 0,-1.156 -0.969,0 0,1.156 -0.687,0 0,-1.156 -0.969,0 0,1.156 -0.687,0 0,-1.156 -0.969,0 0,1.156 -0.688,0 0,-1.156 -0.968,0 0,1.156 -0.688,0 0,-1.156 -0.969,0 0,1.156 -0.718,0 0,-1.156 -0.625,0 0,1.843 -20.875,0 0,-1.875 -0.719,0 0,1.157 -0.719,0 0,-1.157 -0.937,0 0,1.157 -0.719,0 0,-1.157 -0.938,0 0,1.157 -0.718,0 0,-1.157 -0.969,0 0,1.157 -0.688,0 0,-1.157 -0.968,0 0,1.157 -0.688,0 0,-1.157 -0.969,0 0,1.157 -0.687,0 0,-1.157 -0.969,0 0,1.157 -0.687,0 0,-1.157 -0.969,0 0,1.157 -0.719,0 0,-1.157 -0.937,0 0,1.157 -0.719,0 0,-1.157 -0.969,0 0,1.157 -0.687,0 0,-1.157 -0.969,0 0,1.157 -0.688,0 0,-1.157 -0.968,0 0,1.157 -0.688,0 0,-1.157 -0.969,0 0,1.157 -0.687,0 0,-1.157 -0.969,0 0,1.157 -0.719,0 0,-1.157 -0.531,0 0,1.875 -5,0 0,-1.843 -0.719,0 0,1.156 -0.718,0 0,-1.156 -0.938,0 0,1.156 -0.719,0 0,-1.156 -0.937,0 0,1.156 -0.719,0 0,-1.156 -0.969,0 0,1.156 -0.687,0 0,-1.156 -0.969,0 0,1.156 -0.687,0 0,-1.156 -0.969,0 0,1.156 -0.688,0 0,-1.156 -0.968,0 0,1.156 -0.688,0 0,-1.156 -0.969,0 0,1.156 -0.718,0 0,-1.156 -0.938,0 0,1.156 -0.719,0 0,-1.156 -0.968,0 0,1.156 -0.688,0 0,-1.156 -0.969,0 0,1.156 -0.687,0 0,-1.156 -0.969,0 0,1.156 -0.687,0 0,-1.156 -0.969,0 0,1.156 -0.688,0 0,-1.156 -0.968,0 0,1.156 -0.719,0 0,-1.156 -0.625,0 0,1.906 -5.031,0 z m 5.031,-2.594 0.625,0 0,-9.344 -0.625,0 0,9.344 z m 1.344,0 0.968,0 0,-9.344 -0.968,0 0,9.344 z m 1.656,0 0.969,0 0,-9.344 -0.969,0 0,9.344 z m 1.656,0 0.969,0 0,-9.344 -0.969,0 0,9.344 z m 1.656,0 0.969,0 0,-9.344 -0.969,0 0,9.344 z m 1.657,0 0.968,0 0,-9.344 -0.968,0 0,9.344 z m 1.687,0 0.938,0 0,-9.344 -0.938,0 0,9.344 z m 1.656,0 0.969,0 0,-9.344 -0.969,0 0,9.344 z m 1.657,0 0.968,0 0,-9.344 -0.968,0 0,9.344 z m 1.656,0 0.969,0 0,-9.344 -0.969,0 0,9.344 z m 1.656,0 0.969,0 0,-9.344 -0.969,0 0,9.344 z m 1.656,0 0.969,0 0,-9.344 -0.969,0 0,9.344 z m 1.688,0 0.937,0 0,-9.344 -0.937,0 0,9.344 z m 1.656,0 0.938,0 0,-9.344 -0.938,0 0,9.344 z m 1.656,0 0.719,0 0,-9.344 -0.719,0 0,9.344 z m 50.157,0 0.625,0 0,-9.344 -0.625,0 0,9.344 z m 1.343,0 0.969,0 0,-9.344 -0.969,0 0,9.344 z m 1.657,0 0.968,0 0,-9.344 -0.968,0 0,9.344 z m 1.656,0 0.969,0 0,-9.344 -0.969,0 0,9.344 z m 1.656,0 0.969,0 0,-9.344 -0.969,0 0,9.344 z m 1.656,0 0.969,0 0,-9.344 -0.969,0 0,9.344 z m 1.688,0 0.937,0 0,-9.344 -0.937,0 0,9.344 z m 1.656,0 0.969,0 0,-9.344 -0.969,0 0,9.344 z m 1.656,0 0.969,0 0,-9.344 -0.969,0 0,9.344 z m 1.657,0 0.968,0 0,-9.344 -0.968,0 0,9.344 z m 1.656,0 0.969,0 0,-9.344 -0.969,0 0,9.344 z m 1.656,0 0.969,0 0,-9.344 -0.969,0 0,9.344 z m 1.688,0 0.933,0 0,-9.344 -0.933,0 0,9.344 z m 1.656,0 0.937,0 0,-9.344 -0.937,0 0,9.344 z m 1.656,0 0.719,0 0,-9.344 -0.719,0 0,9.344 z m -67.375,-0.031 0.531,0 0,-9.344 -0.531,0 0,9.344 z m 1.25,0 0.969,0 0,-9.344 -0.969,0 0,9.344 z m 1.656,0 0.969,0 0,-9.344 -0.969,0 0,9.344 z m 1.657,0 0.968,0 0,-9.344 -0.968,0 0,9.344 z m 1.656,0 0.969,0 0,-9.344 -0.969,0 0,9.344 z m 1.656,0 0.969,0 0,-9.344 -0.969,0 0,9.344 z m 1.688,0 0.937,0 0,-9.344 -0.937,0 0,9.344 z m 1.656,0 0.969,0 0,-9.344 -0.969,0 0,9.344 z m 1.656,0 0.969,0 0,-9.344 -0.969,0 0,9.344 z m 1.656,0 0.969,0 0,-9.344 -0.969,0 0,9.344 z m 1.657,0 0.968,0 0,-9.344 -0.968,0 0,9.344 z m 1.656,0 0.969,0 0,-9.344 -0.969,0 0,9.344 z m 1.687,0 0.938,0 0,-9.344 -0.938,0 0,9.344 z m 1.657,0 0.937,0 0,-9.344 -0.937,0 0,9.344 z m 1.656,0 0.719,0 0,-9.344 -0.719,0 0,9.344 z m 50.25,0 0.562,0 0,-9.344 -0.562,0 0,9.344 z m 1.281,0 0.969,0 0,-9.344 -0.969,0 0,9.344 z m 1.656,0 0.965,0 0,-9.344 -0.965,0 0,9.344 z m 1.657,0 0.968,0 0,-9.344 -0.968,0 0,9.344 z m 1.656,0 0.969,0 0,-9.344 -0.969,0 0,9.344 z m 1.652,0 0.973,0 0,-9.344 -0.973,0 0,9.344 z m 1.692,0 0.937,0 0,-9.344 -0.937,0 0,9.344 z m 1.656,0 0.969,0 0,-9.344 -0.969,0 0,9.344 z m 1.652,0 0.973,0 0,-9.344 -0.973,0 0,9.344 z m 1.66,0 0.969,0 0,-9.344 -0.969,0 0,9.344 z m 1.657,0 0.968,0 0,-9.344 -0.968,0 0,9.344 z m 1.656,0 0.969,0 0,-9.344 -0.969,0 0,9.344 z m 1.687,0 0.938,0 0,-9.344 -0.938,0 0,9.344 z m 1.657,0 0.933,0 0,-9.344 -0.933,0 0,9.344 z"
             style="fill:url(#linearGradient8610);stroke:none"
             id="path8616" />
        </g>
      </g>
    </g>
    <g
       id="g8618"
       transform="matrix(1.25,0,0,1.25,189.72941,227.2012)">
      <path
         d="m 173.441,122.758 -22.168,0"
         style="fill:none;stroke:#ffffff;stroke-width:0.69999999;stroke-linecap:butt;stroke-linejoin:miter;stroke-miterlimit:4;stroke-dasharray:none;stroke-opacity:1"
         id="path8620" />
    </g>
    <path
       d="m 378.82066,313.81221 0,4.88375 90.3525,0 0,-4.88375 -90.3525,0 z m 37.54,9.7275 c -2.305,0 -4.24875,0.45875 -5.82125,1.1325 -0.95125,0.415 -1.5525,0.84 -1.875,1.1325 l -0.195,0.1175 0,3.8675 -7.265,0 0,-3.125 c 0,0 -0.62,-0.20625 -0.86,-0.27375 -0.39,-0.1125 -0.805,-0.205 -1.28875,-0.3125 -1.3775,-0.29875 -2.8325,-0.5075 -4.21875,-0.5075 -0.25375,0 -0.5075,0.0288 -0.78125,0.0387 -1.1725,0.0537 -2.4075,0.22875 -3.6725,0.46875 -0.54625,0.1025 -1.05375,0.16625 -1.5225,0.27375 -0.27875,0.0675 -0.9775,0.2725 -0.9775,0.2725 l 0,3.165 -9.18875,0 0,0.9375 10.16625,0 0,-3.39875 c 0.0775,-0.02 0.1025,-0.015 0.195,-0.0387 0.45375,-0.1075 0.9525,-0.21 1.48375,-0.3125 1.22625,-0.23 2.4325,-0.37625 3.555,-0.43 0.25875,-0.01 0.50375,0 0.7425,0 1.31375,0 2.66625,0.14625 3.98375,0.43 0.465,0.1025 0.91375,0.205 1.29,0.3125 0.0625,0.0188 0.0675,0.0238 0.11625,0.0387 l 0,3.39875 9.18,0 0,-4.375 c 0.0688,-0.0538 0.0975,-0.10375 0.235,-0.19625 0.34625,-0.22875 0.78625,-0.44375 1.28875,-0.66375 1.455,-0.625 3.25625,-0.97625 5.43,-0.97625 0.0487,0 0.0725,0 0.11625,0 2.17375,0 4.01875,0.35125 5.46875,0.97625 0.50375,0.22 0.9475,0.435 1.29,0.66375 0.13625,0.0925 0.16625,0.1425 0.23375,0.19625 l 0,4.375 8.36,0 0,-3.39875 c 0.0775,-0.02 0.14125,-0.015 0.23375,-0.0387 0.45375,-0.1075 0.9525,-0.21 1.485,-0.3125 1.225,-0.23 2.43125,-0.37625 3.55375,-0.43 0.25875,-0.01 0.50375,0 0.7425,0 1.31875,0 2.66625,0.14625 3.985,0.43 0.46375,0.1025 0.9125,0.205 1.28875,0.3125 0.0638,0.0188 0.0688,0.0238 0.1175,0.0387 l 0,3.39875 10.78125,0 0,-3.39875 c 0.0775,-0.02 0.1025,-0.015 0.195,-0.0387 0.45375,-0.1075 0.9525,-0.21 1.48375,-0.3125 1.22625,-0.23 2.4325,-0.37625 3.555,-0.43 0.25875,-0.01 0.50375,0 0.7425,0 1.31375,0 2.705,0.14625 4.02375,0.43 0.46375,0.1025 0.87375,0.205 1.25,0.3125 0.0625,0.0188 0.1075,0.0238 0.15625,0.0387 l 0,3.39875 4.375,0 0,-0.9375 -3.4375,0 0,-3.125 c 0,0 -0.58125,-0.20625 -0.82125,-0.27375 -0.39,-0.1125 -0.84375,-0.205 -1.3275,-0.3125 -1.3775,-0.29875 -2.8325,-0.5075 -4.21875,-0.5075 -0.25375,0 -0.5075,0.0288 -0.78125,0.0387 -1.1725,0.0537 -2.4075,0.22875 -3.6725,0.46875 -0.54625,0.1025 -1.05375,0.16625 -1.5225,0.27375 -0.27875,0.0675 -0.9375,0.2725 -0.9375,0.2725 l 0,3.165 -8.90625,0 0,-3.125 c 0,0 -0.58125,-0.20625 -0.82125,-0.27375 -0.39,-0.1125 -0.84375,-0.205 -1.3275,-0.3125 -1.3775,-0.29875 -2.7925,-0.5075 -4.18,-0.5075 -0.25375,0 -0.5075,0.0288 -0.78125,0.0387 -1.17125,0.0537 -2.4075,0.22875 -3.67125,0.46875 -0.5475,0.1025 -1.09375,0.16625 -1.5625,0.27375 -0.27875,0.0675 -0.9375,0.2725 -0.9375,0.2725 l 0,3.165 -6.52375,0 0,-3.8675 -0.15625,-0.1175 c -0.3175,-0.2925 -0.9575,-0.7175 -1.91375,-1.1325 -1.5725,-0.67375 -3.51125,-1.1325 -5.82125,-1.1325 -0.0437,0 -0.0675,0 -0.11625,0 z m -4.375,4.57 c -0.5175,0.2825 -0.43,0.6975 -0.43,0.9375 l 0,2.73375 c 0,0.24 0.195,0.46875 0.43,0.46875 l 1.9525,0 c 0.24,0 0.43,-0.22875 0.43,-0.46875 l 0,-2.73375 c 0,-0.24 0.1025,-0.61125 -0.43,-0.9375 -0.5175,-0.3175 -1.41625,-0.28875 -1.9525,0 z m 7.1475,0 c -0.5225,0.2825 -0.39,0.6975 -0.39,0.9375 l 0,2.73375 c 0,0.24 0.15625,0.46875 0.39,0.46875 l 1.9925,0 c 0.24,0 0.43,-0.22875 0.43,-0.46875 l 0,-2.73375 c 0,-0.24 0.1025,-0.61125 -0.43,-0.9375 -0.5175,-0.3175 -1.455,-0.28875 -1.9925,0 z m -24.72625,0.23375 c -1.89375,0 -3.58375,0.3075 -3.90625,0.5475 l 0,3.35875 c 0,0.24 0.15625,0.43 0.39125,0.43 l 7.34375,0 c 0.23875,0 0.42875,-0.19 0.42875,-0.43 0,0 -0.009,-2.045 0,-3.35875 -0.2975,-0.29875 -2.3575,-0.5475 -4.2575,-0.5475 z m 43.0075,0 c -1.89375,0 -3.58375,0.3075 -3.90625,0.5475 0.005,1.025 0,3.35875 0,3.35875 0,0.24 0.15625,0.43 0.39125,0.43 l 7.34375,0 c 0.23875,0 0.43,-0.19 0.43,-0.43 0,0 -0.01,-2.045 0,-3.35875 -0.29875,-0.29875 -2.35875,-0.5475 -4.25875,-0.5475 z m 22.1875,0 c -1.89375,0 -3.6225,0.3075 -3.945,0.5475 l 0,3.35875 c 0,0.24 0.195,0.43 0.43,0.43 l 7.34375,0 c 0.23875,0 0.43,-0.19 0.43,-0.43 0,0 -0.01,-2.045 0,-3.35875 -0.29875,-0.29875 -2.35875,-0.5475 -4.25875,-0.5475 z m -47.61625,4.64875 c -0.235,0 -0.43,0.235 -0.43,0.46875 l 0,9.21875 c 0,0.23875 0.195,0.46875 0.43,0.46875 l 1.9525,0 c 0.24,0 0.43,-0.23 0.43,-0.46875 l 0,-9.21875 c 0,-0.23375 -0.19,-0.46875 -0.43,-0.46875 l -1.9525,0 z m 7.1475,0 c -0.23375,0 -0.39,0.235 -0.39,0.46875 l 0,9.21875 c 0,0.23875 0.15625,0.46875 0.39,0.46875 l 1.9925,0 c 0.24,0 0.43,-0.23 0.43,-0.46875 l 0,-9.21875 c 0,-0.23375 -0.19,-0.46875 -0.43,-0.46875 l -1.9925,0 z m -27.695,0.5075 c -0.23375,0 -0.39,0.235 -0.39,0.46875 l 0,9.25875 c 0,0.23875 0.15625,0.42875 0.39,0.42875 l 2.305,0 c 0.23875,0 0.43,-0.19 0.43,-0.42875 l 0,-9.25875 c 0,-0.23375 -0.19125,-0.46875 -0.43,-0.46875 l -2.305,0 z m 4.14125,0 c -0.235,0 -0.46875,0.235 -0.46875,0.46875 l 0,9.25875 c 0,0.23875 0.23375,0.42875 0.46875,0.42875 l 2.30375,0 c 0.24,0 0.43,-0.19 0.43,-0.42875 l 0,-9.25875 c 0,-0.23375 -0.19,-0.46875 -0.43,-0.46875 l -2.30375,0 z m 38.86625,0 c -0.23375,0 -0.42875,0.235 -0.42875,0.46875 l 0,9.25875 c 0,0.23875 0.195,0.42875 0.42875,0.42875 l 2.305,0 c 0.24,0 0.43,-0.19 0.43,-0.42875 l 0,-9.25875 c 0,-0.23375 -0.19,-0.46875 -0.43,-0.46875 l -2.305,0 z m 4.14125,0 c -0.235,0 -0.46875,0.235 -0.46875,0.46875 l 0,9.25875 c 0,0.23875 0.23375,0.42875 0.46875,0.42875 l 2.305,0 c 0.23875,0 0.39,-0.19 0.39,-0.42875 l 0,-9.25875 c 0,-0.23375 -0.15125,-0.46875 -0.39,-0.46875 l -2.305,0 z m 18.04625,0 c -0.23375,0 -0.42875,0.235 -0.42875,0.46875 l 0,9.25875 c 0,0.23875 0.195,0.42875 0.42875,0.42875 l 2.305,0 c 0.24,0 0.39125,-0.19 0.39125,-0.42875 l 0,-9.25875 c 0,-0.23375 -0.15125,-0.46875 -0.39125,-0.46875 l -2.305,0 z m 4.1025,0 c -0.235,0 -0.43,0.235 -0.43,0.46875 l 0,9.25875 c 0,0.23875 0.195,0.42875 0.43,0.42875 l 2.30375,0 c 0.24,0 0.43,-0.19 0.43,-0.42875 l 0,-9.25875 c 0,-0.23375 -0.19,-0.46875 -0.43,-0.46875 l -2.30375,0 z m -82.095,10.50875 0,0.97625 10.7275,0 0,0.97625 10.46875,0 0,-0.97625 15.7025,0 -7.34375,6.83625 -29.49625,0 0,0.8975 29.8875,0 7.93,-7.3825 7.92875,7.3825 45.045,0 0,-0.8975 -44.6925,0 -7.305,-6.83625 14.8825,0 0,0.97625 10.46875,0 0,-0.97625 11.71875,0 0,0.97625 10.43,0 0,-0.97625 4.4975,0 0,-0.97625 -5.435,0 0,1.05375 -8.555,0 0,-1.05375 -13.6325,0 0,1.05375 -8.51625,0 0,-1.05375 -34.49125,0 0,1.05375 -8.51625,0 0,-1.05375 -11.70375,0 z m 37.9925,3.8275 c -1.37625,-0.02 -0.5075,3.51625 -0.5075,3.51625 l -1.015,0 -0.04,0.8975 3.0475,0 -0.0387,-0.8975 -0.9775,0 c 0,0 0.91375,-3.49625 -0.46875,-3.51625 z m 0.0788,8.8675 c -1.895,0 -2.8025,0.27375 -3.125,0.5075 0.005,1.025 0,3.39875 0,3.39875 0,0.23875 0.15625,0.43 0.39,0.43 l 5.58625,0 c 0,0 0.39125,-0.19125 0.39125,-0.43 0,0 -0.01,-2.085 0,-3.39875 -0.29875,-0.2975 -1.34375,-0.5075 -3.2425,-0.5075 z m -22.305,0.195 c -1.89375,0.005 -3.58375,0.27375 -3.90625,0.5075 l 0,3.39875 c 0,0.23875 0.15625,0.39125 0.39125,0.39125 l 7.34375,0 c 0.23875,0 0.42875,-0.1525 0.42875,-0.39125 0,0 -0.009,-2.085 0,-3.39875 -0.2975,-0.2975 -2.3575,-0.5075 -4.2575,-0.5075 z m 43.0075,0 c -1.89375,0.005 -3.58375,0.27375 -3.90625,0.5075 0.005,1.02625 0,3.39875 0,3.39875 0,0.23875 0.15625,0.39125 0.39125,0.39125 l 7.34375,0 c 0.23875,0 0.43,-0.1525 0.43,-0.39125 0,0 -0.01,-2.085 0,-3.39875 -0.29875,-0.2975 -2.35875,-0.5075 -4.25875,-0.5075 z m 22.1875,0 c -1.89375,0.005 -3.6225,0.27375 -3.945,0.5075 l 0,3.39875 c 0,0.23875 0.195,0.39125 0.43,0.39125 l 7.34375,0 c 0.23875,0 0.43,-0.1525 0.43,-0.39125 0,0 -0.01,-2.085 0,-3.39875 -0.29875,-0.2975 -2.35875,-0.5075 -4.25875,-0.5075 z m -47.695,4.805 0,3.28125 0.89875,0 c 0,0 -0.1075,-0.865 0.625,-0.86 0.005,-0.46375 -0.0487,-1.24 3.16375,-1.28875 3.2225,0.0487 3.20375,0.825 3.20375,1.28875 0.7325,-0.005 0.625,0.86 0.625,0.86 l 0.8975,0 0,-3.28125 -9.41375,0 z m -20.46875,0.35125 c -0.23375,0 -0.39,0.19 -0.39,0.43 l 0,9.2575 c 0,0.23875 0.15625,0.46875 0.39,0.46875 l 2.305,0 c 0.23875,0 0.43,-0.23 0.43,-0.46875 l 0,-9.2575 c 0,-0.24 -0.19125,-0.43 -0.43,-0.43 l -2.305,0 z m 4.14125,0 c -0.235,0 -0.46875,0.19 -0.46875,0.43 l 0,9.2575 c 0,0.23875 0.23375,0.46875 0.46875,0.46875 l 2.30375,0 c 0.24,0 0.43,-0.23 0.43,-0.46875 l 0,-9.2575 c 0,-0.24 -0.19,-0.43 -0.43,-0.43 l -2.30375,0 z m 38.86625,0 c -0.23375,0 -0.42875,0.19 -0.42875,0.43 l 0,9.2575 c 0,0.23875 0.195,0.46875 0.42875,0.46875 l 2.305,0 c 0.24,0 0.43,-0.23 0.43,-0.46875 l 0,-9.2575 c 0,-0.24 -0.19,-0.43 -0.43,-0.43 l -2.305,0 z m 4.14125,0 c -0.235,0 -0.46875,0.19 -0.46875,0.43 l 0,9.2575 c 0,0.23875 0.23375,0.46875 0.46875,0.46875 l 2.305,0 c 0.23875,0 0.39,-0.23 0.39,-0.46875 l 0,-9.2575 c 0,-0.24 -0.15125,-0.43 -0.39,-0.43 l -2.305,0 z m 18.04625,0 c -0.23375,0 -0.42875,0.19 -0.42875,0.43 l 0,9.2575 c 0,0.23875 0.195,0.46875 0.42875,0.46875 l 2.305,0 c 0.24,0 0.39125,-0.23 0.39125,-0.46875 l 0,-9.2575 c 0,-0.24 -0.15125,-0.43 -0.39125,-0.43 l -2.305,0 z m 4.1025,0 c -0.235,0 -0.43,0.19 -0.43,0.43 l 0,9.2575 c 0,0.23875 0.195,0.46875 0.43,0.46875 l 2.30375,0 c 0.24,0 0.43,-0.23 0.43,-0.46875 l 0,-9.2575 c 0,-0.24 -0.19,-0.43 -0.43,-0.43 l -2.30375,0 z m -71.1725,11.09375 0,0.97625 10.35125,0 0,-0.97625 -10.35125,0 z m 42.77375,0 0,0.97625 10.35125,0 0,-0.97625 -10.35125,0 z m 22.10875,0 0,0.97625 10.39125,0 0,-0.97625 -10.39125,0 z m -43.2025,3.28125 0,1.9925 -32.57875,0 0,6.015 33.4775,0 0,-0.0387 8.0075,0 0,0.0387 50.0775,0 0,-6.015 -49.17875,0 0,-1.9925 -0.89875,0 0,4.72625 -8.0075,0 0,-4.72625 -0.89875,0 z"
       style="fill:#ffffff;fill-opacity:1;fill-rule:nonzero;stroke:none"
       id="path8622" />
    <path
       d="m 296.46316,335.77096 c 0,-1.69 1.36625,-3.0575 3.05125,-3.0575 1.69,0 3.05625,1.3675 3.05625,3.0575 0,1.68375 -1.36625,3.05125 -3.05625,3.05125 -1.685,0 -3.05125,-1.3675 -3.05125,-3.05125 z"
       style="fill:#ffffff;fill-opacity:1;fill-rule:nonzero;stroke:none"
       id="path8624" />
    <path
       d="m 228.04441,343.81221 c 0,-1.68375 1.3675,-3.05125 3.0575,-3.05125 1.68375,0 3.05125,1.3675 3.05125,3.05125 0,1.69 -1.3675,3.0575 -3.05125,3.0575 -1.69,0 -3.0575,-1.3675 -3.0575,-3.0575 z"
       style="fill:#ffffff;fill-opacity:1;fill-rule:nonzero;stroke:none"
       id="path8626" />
    <path
       d="m 284.07566,322.98221 c 0,-1.68875 1.36625,-3.05625 3.05625,-3.05625 1.685,0 3.05125,1.3675 3.05125,3.05625 0,1.685 -1.36625,3.0525 -3.05125,3.0525 -1.69,0 -3.05625,-1.3675 -3.05625,-3.0525 z"
       style="fill:#ffffff;fill-opacity:1;fill-rule:nonzero;stroke:none"
       id="path8628" />
    <g
       transform="matrix(1.25,0,0,-1.25,189.72941,412.67596)"
       id="g8630">
      <g
         id="g8632"
         clip-path="url(#clipPath8634)">
        <g
           id="g8638"
           transform="matrix(1,0,0,-1,6.664082,167.19794)">
          <g
             id="g8640" />
          <g
             id="g8660"
             mask="url(#mask8652)">
            <path
               d="m 60.148,78.989 0.633,0 c 4.91,0 8.887,-3.98 8.887,-8.887 l 0,-24.355 c 0,-4.91 -3.977,-8.891 -8.887,-8.891 l -0.633,0 c -4.91,0 -8.89,3.981 -8.89,8.891 l 0,24.355 c 0,4.907 3.98,8.887 8.89,8.887 z"
               style="fill:url(#radialGradient8662);stroke:none"
               id="path8668" />
          </g>
        </g>
      </g>
    </g>
    <g
       transform="matrix(1.25,0,0,-1.25,189.72941,412.67596)"
       id="g8670">
      <g
         id="g8672"
         clip-path="url(#clipPath8674)">
        <g
           id="g8678">
          <path
             d="m 59.699,45.356 -0.594,-1.125 -0.906,0.844 -0.562,-0.594 2.75,-2.562 -0.188,-19.156 0.813,0 0.187,17.937 2.063,1.813 -0.5,0.593 -1.563,-1.343 0,0.5 -1.5,1.406 0.719,1.312 -0.719,0.375 z"
             style="fill:url(#linearGradient8680);stroke:none"
             id="path8686" />
        </g>
      </g>
    </g>
    <g
       transform="matrix(1.25,0,0,-1.25,189.72941,412.67596)"
       id="g8688">
      <g
         id="g8690"
         clip-path="url(#clipPath8692)">
        <g
           id="g8696"
           transform="matrix(1,0,0,-1,52.90356,167.19794)">
          <g
             id="g8698" />
          <g
             id="g8718"
             mask="url(#mask8710)">
            <path
               d="m 106.387,78.989 0.633,0 c 4.91,0 8.89,-3.98 8.89,-8.887 l 0,-24.355 c 0,-4.91 -3.98,-8.891 -8.89,-8.891 l -0.633,0 c -4.91,0 -8.891,3.981 -8.891,8.891 l 0,24.355 c 0,4.907 3.981,8.887 8.891,8.887 z"
               style="fill:url(#radialGradient8720);stroke:none"
               id="path8726" />
          </g>
        </g>
      </g>
    </g>
    <g
       transform="matrix(1.25,0,0,-1.25,189.72941,412.67596)"
       id="g8728">
      <g
         id="g8730"
         clip-path="url(#clipPath8732)">
        <g
           id="g8736">
          <path
             d="m 105.949,45.356 -0.594,-1.156 -0.937,0.875 -0.531,-0.594 2.75,-2.562 -0.188,-19.156 0.781,0 0.188,17.937 2.094,1.813 -0.532,0.593 -1.562,-1.343 0,0.5 -1.469,1.375 0.719,1.343 -0.719,0.375 z"
             style="fill:url(#linearGradient8738);stroke:none"
             id="path8744" />
        </g>
      </g>
    </g>
  </g>
</svg>
