<?xml version="1.0" encoding="UTF-8" standalone="no"?>
<!-- Created with Inkscape (http://www.inkscape.org/) -->

<svg
   xmlns:dc="http://purl.org/dc/elements/1.1/"
   xmlns:cc="http://creativecommons.org/ns#"
   xmlns:rdf="http://www.w3.org/1999/02/22-rdf-syntax-ns#"
   xmlns:svg="http://www.w3.org/2000/svg"
   xmlns="http://www.w3.org/2000/svg"
   xmlns:sodipodi="http://sodipodi.sourceforge.net/DTD/sodipodi-0.dtd"
   xmlns:inkscape="http://www.inkscape.org/namespaces/inkscape"
   viewBox="0 0 140 185"
   id="svg5876"
   version="1.1"
   inkscape:version="0.48.4 r9939"
   sodipodi:docname="student_asking_question.svg">
  <defs
     id="defs5878" />
  <sodipodi:namedview
     id="base"
     pagecolor="#ffffff"
     bordercolor="#666666"
     borderopacity="1.0"
     inkscape:pageopacity="0.0"
     inkscape:pageshadow="2"
     inkscape:zoom="0.7"
     inkscape:cx="106.52968"
     inkscape:cy="104.2552"
     inkscape:document-units="px"
     inkscape:current-layer="layer1"
     showgrid="false"
     fit-margin-top="0"
     fit-margin-left="0"
     fit-margin-right="0"
     fit-margin-bottom="0"
     inkscape:window-width="496"
     inkscape:window-height="416"
     inkscape:window-x="637"
     inkscape:window-y="115"
     inkscape:window-maximized="0" />
  <metadata
     id="metadata5881">
    <rdf:RDF>
      <cc:Work
         rdf:about="">
        <dc:format>image/svg+xml</dc:format>
        <dc:type
           rdf:resource="http://purl.org/dc/dcmitype/StillImage" />
        <dc:title></dc:title>
      </cc:Work>
    </rdf:RDF>
  </metadata>
  <g
     inkscape:label="Layer 1"
     inkscape:groupmode="layer"
     id="layer1"
     transform="translate(-178.90791,-308.76025)">
    <g
       transform="translate(-181.47923,-194.31641)"
       inkscape:label="Calque 1"
       id="layer1-7-9">
      <path
         d="m 405.42,543.28 -1.17,22.2 c -0.44,6.6 -0.89,7.45 -1.33,10.66 14.58,3.58 30.53,2.3 49.59,0.47 4.69,-0.45 7.91,-1.78 11.84,-2.97 l -1.14,-11 -2.43,-26.86 -55.36,7.5 z"
         style="color:#000000;fill:#6b2e00;fill-opacity:1;fill-rule:nonzero;stroke:#000000;stroke-width:2;stroke-linecap:round;stroke-linejoin:round;stroke-miterlimit:4;stroke-opacity:1;stroke-dasharray:none;stroke-dashoffset:1.5;marker:none;visibility:visible;display:inline;overflow:visible;enable-background:accumulate"
         sodipodi:nodetypes="cccscccc"
         id="path3312-7"
         inkscape:connector-curvature="0" />
      <path
         d="m 386.75,628.44 85.67,-1.06 17.43,43.91 -117.03,0.71 13.93,-43.56 z"
         style="fill:#ffffff;stroke:#000000;stroke-width:2;stroke-linecap:round;stroke-linejoin:round;stroke-dashoffset:1.5"
         sodipodi:nodetypes="ccccc"
         id="path3332-1"
         inkscape:connector-curvature="0" />
      <path
         d="M 405.78,588.64 z"
         style="fill:#ffffff;stroke:#000000;stroke-width:2;stroke-linecap:round;stroke-linejoin:round;stroke-dashoffset:1.5"
         id="path3326-8"
         inkscape:connector-curvature="0" />
      <path
         d="m 411.68,610.27 -2.45,16.69"
         style="fill:#000000;stroke:#000000;stroke-width:2;stroke-linecap:round;stroke-linejoin:round;stroke-dashoffset:1.5"
         sodipodi:nodetypes="cc"
         id="path3328-0"
         inkscape:connector-curvature="0" />
      <path
         d="m 416.56,666.7 42.5,-1.07 -13.21,-28.57 h -23.93 l -5.36,29.64 z"
         style="fill:#ffffff;stroke:#000000;stroke-width:2;stroke-linecap:round;stroke-linejoin:round;stroke-dashoffset:1.5"
         sodipodi:nodetypes="ccccc"
         id="path3338-1"
         inkscape:connector-curvature="0" />
      <path
         d="m 373.04,671.85 0.75,16.43 115,-0.71 1.24,-16.43 -116.99,0.71 z"
         style="fill:#ffffff;stroke:#000000;stroke-width:2;stroke-linecap:round;stroke-linejoin:round;stroke-dashoffset:1.5"
         sodipodi:nodetypes="ccccc"
         id="path2529-2"
         inkscape:connector-curvature="0" />
      <g
         id="g5203">
        <path
           inkscape:connector-curvature="0"
           id="path3310-2"
           style="color:#000000;fill:#ffcb9f;fill-opacity:1;fill-rule:nonzero;stroke:#000000;stroke-width:2;stroke-linecap:round;stroke-linejoin:round;stroke-miterlimit:4;stroke-opacity:1;stroke-dasharray:none;stroke-dashoffset:1.5;marker:none;visibility:visible;display:inline;overflow:visible;enable-background:accumulate"
           d="m 462.39,550.72 c 7.67,-2.47 6.27,-10.88 -0.38,-10.74 l 0.38,10.74 z"
           sodipodi:nodetypes="ccc"
           inkscape:transform-center-y="28.214286"
           inkscape:transform-center-x="84.285714" />
        <path
           inkscape:connector-curvature="0"
           id="path3314-6"
           sodipodi:nodetypes="ccccc"
           style="color:#000000;fill:#ffcb9f;fill-opacity:1;fill-rule:nonzero;stroke:#000000;stroke-width:2;stroke-linecap:round;stroke-linejoin:round;stroke-miterlimit:4;stroke-opacity:1;stroke-dasharray:none;stroke-dashoffset:1.5;marker:none;visibility:visible;display:inline;overflow:visible;enable-background:accumulate"
           d="m 424.71,576.14 c -0.6,4.28 -2.98,16.78 -3.57,21.07 6.9,7.31 18.8,4.6 25.71,0.71 -0.48,-5.64 -4.17,-19.95 -4.64,-24.64 l -17.5,2.86 z" />
        <path
           inkscape:connector-curvature="0"
           id="path3316-5"
           sodipodi:nodetypes="cccccc"
           style="color:#000000;fill:#ffcb9f;fill-opacity:1;fill-rule:nonzero;stroke:#000000;stroke-width:2;stroke-linecap:round;stroke-linejoin:round;stroke-miterlimit:4;stroke-opacity:1;stroke-dasharray:none;stroke-dashoffset:1.5;marker:none;visibility:visible;display:inline;overflow:visible;enable-background:accumulate"
           d="m 462.92,543.64 c -0.25,15.69 -11.77,27.87 -26.04,33.2 -12.95,2.16 -23.69,-8.91 -30.18,-22.37 -3.55,-12.2 -3.05,-27.08 7.3,-34.59 10.4,-8.01 25.79,-8.95 36.84,-1.68 9.04,5.69 12.31,14.66 12.08,25.44 z" />
        <path
           id="path3318-2"
           sodipodi:rx="1.7857143"
           sodipodi:ry="2.1428571"
           style="fill:#000000;stroke:#000000;stroke-width:5.532763;stroke-linecap:round;stroke-linejoin:round;stroke-dashoffset:1.5"
           sodipodi:type="arc"
           d="m 315.71427,452.36218 c 0,1.18347 -0.79949,2.14286 -1.78571,2.14286 -0.98622,0 -1.78572,-0.95939 -1.78572,-2.14286 0,-1.18346 0.7995,-2.14285 1.78572,-2.14285 0.98622,0 1.78571,0.95939 1.78571,2.14285 z"
           transform="matrix(0.27568976,-0.04895657,0.08159387,0.45948062,307.24163,354.62563)"
           sodipodi:cy="452.36218"
           sodipodi:cx="313.92856" />
        <path
           inkscape:connector-curvature="0"
           id="path3320-2"
           sodipodi:nodetypes="csccsc"
           style="color:#000000;fill:#6b2e00;fill-opacity:1;fill-rule:nonzero;stroke:#000000;stroke-width:2;stroke-linecap:round;stroke-linejoin:round;stroke-miterlimit:4;stroke-opacity:1;stroke-dasharray:none;stroke-dashoffset:1.5;marker:none;visibility:visible;display:inline;overflow:visible;enable-background:accumulate"
           d="m 405.06,540.78 c 7.19,-1.34 17.51,-3.46 23.8,-7.51 4.59,-2.96 12.5,-6.56 16.56,-10.71 6.13,7.44 8.27,11.74 17.14,16.43 -1.82,-30.7 -30.45,-37.92 -47.43,-25.02 -6.92,5.25 -10.15,15.74 -10.07,26.81 z" />
        <path
           id="path3334-2"
           sodipodi:rx="1.7857143"
           sodipodi:ry="2.1428571"
           style="fill:#000000;stroke:#000000;stroke-width:5.532763;stroke-linecap:round;stroke-linejoin:round;stroke-dashoffset:1.5"
           sodipodi:type="arc"
           d="m 315.71427,452.36218 c 0,1.18347 -0.79949,2.14286 -1.78571,2.14286 -0.98622,0 -1.78572,-0.95939 -1.78572,-2.14286 0,-1.18346 0.7995,-2.14285 1.78572,-2.14285 0.98622,0 1.78571,0.95939 1.78571,2.14285 z"
           transform="matrix(0.26857886,-0.07916429,0.13193982,0.44762918,295.49934,369.10984)"
           sodipodi:cy="452.36218"
           sodipodi:cx="313.92856" />
        <path
           inkscape:connector-curvature="0"
           id="path3336-8"
           sodipodi:nodetypes="cc"
           style="fill:none;stroke:#000000;stroke-width:1.5;stroke-linecap:round;stroke-linejoin:round;stroke-dashoffset:1.5"
           d="m 432.5,556.79 c 0.9,1.62 3.94,1.75 5.84,-0.28" />
        <path
           sodipodi:nodetypes="cc"
           inkscape:connector-curvature="0"
           id="path3870"
           d="m 427.31355,565.04079 c 5.71429,3.57143 13.57143,0.71429 13.57143,0.71429"
           style="color:#000000;fill:none;stroke:#000000;stroke-width:2;stroke-linecap:round;stroke-linejoin:round;stroke-miterlimit:4;stroke-opacity:1;stroke-dasharray:none;stroke-dashoffset:1.5;marker:none;visibility:visible;display:inline;overflow:visible;enable-background:accumulate" />
        <path
           inkscape:connector-curvature="0"
           id="path3308-8"
           sodipodi:nodetypes="ccc"
           style="color:#000000;fill:#ffcb9f;fill-opacity:1;fill-rule:nonzero;stroke:#000000;stroke-width:2;stroke-linecap:round;stroke-linejoin:round;stroke-miterlimit:4;stroke-opacity:1;stroke-dasharray:none;stroke-dashoffset:1.5;marker:none;visibility:visible;display:inline;overflow:visible;enable-background:accumulate"
           d="m 405.06,541.85 c -7.59,2.7 -5.93,11.06 0.72,10.71 l -0.72,-10.71 z" />
      </g>
      <path
         d="m 465.39716,649.55761 c 13.33222,-7.62797 19.30194,-11.88712 28.27141,-20.29476 -5.5,-12 -22.82857,-40.29285 -36.32857,-43.36285 l -12.28,-0.84 c -8.32,19.48 -14.38,13.99 -21.77,0.41 -4.67,-0.35 -11.86,0.75 -17.48,2.29 -7.41,15.45 -9.47,24.14 -13.77,40.7 l 15.24,-0.36 56.14286,-0.40254 -1.90572,-20.47317 c 6.37,7.19857 10.02,11.06571 14.75286,17.31 -5.62269,5.95381 -10.8846,8.22395 -18.77286,15.39 z"
         style="color:#000000;fill:#ff2a2a;fill-opacity:1;fill-rule:nonzero;stroke:#000000;stroke-width:2;stroke-linecap:round;stroke-linejoin:round;stroke-miterlimit:4;stroke-opacity:1;stroke-dasharray:none;stroke-dashoffset:1.5;marker:none;visibility:visible;display:inline;overflow:visible;enable-background:accumulate"
         sodipodi:nodetypes="ccccccccccccc"
         id="path3324-0"
         inkscape:connector-curvature="0" />
      <path
         d="m 455,626.05 -13.93,31.25 0.17,4.49 3.58,-2.53 16.08,-30.89 -5.9,-2.32 z"
         style="fill:#ffffff;stroke:#000000;stroke-width:2;stroke-linecap:round;stroke-linejoin:round;stroke-dashoffset:1.5"
         sodipodi:nodetypes="cccccc"
         id="path3342-5"
         inkscape:connector-curvature="0" />
      <path
         d="m 457.64,640.14 -9.29,2.14 c -3.73,1.78 -7.99,8.35 -7.94,12.97 2.68,3.15 7.41,0.14 11.01,0.54 l 14.61,-7.97 -8.39,-7.68 z"
         style="color:#000000;fill:#ffcb9f;fill-opacity:1;fill-rule:nonzero;stroke:#000000;stroke-width:2;stroke-linecap:round;stroke-linejoin:round;stroke-miterlimit:4;stroke-opacity:1;stroke-dasharray:none;stroke-dashoffset:1.5;marker:none;visibility:visible;display:inline;overflow:visible;enable-background:accumulate"
         sodipodi:nodetypes="cccccc"
         id="path3340-1"
         inkscape:connector-curvature="0" />
    </g>
  </g>
</svg>
